<svg xmlns="http://www.w3.org/2000/svg" viewBox="0 0 497 370.75"><defs><clipPath id="a" transform="translate(52.98 -.25)"><path fill="none" d="M0 .5h387.57V371H0z"/></clipPath></defs><g clip-path="url(#a)"><path fill="#ebebeb" d="M496.98 325.82h-497v.24h497Zm-49.78 16.01h-32.92v.24h32.92Zm-117.96 2.7h-8.64v.22h8.64Zm84.05-11.94h-19.08v.25h19.08Zm-318.21 1.67H52.15v.25h42.93Zm15.15 0h-6.25v.25h6.3Zm113.57 4.2h-93.12v.29h93.12Zm11.79-57.02H43.65a5.69 5.69 0 0 1-5.67-5.69V5.68A5.69 5.69 0 0 1 43.65 0h191.94a5.69 5.69 0 0 1 5.68 5.68v270.07a5.69 5.69 0 0 1-5.68 5.68ZM43.65.25a5.44 5.44 0 0 0-5.43 5.43v270.07a5.44 5.44 0 0 0 5.43 5.43h191.94a5.44 5.44 0 0 0 5.39-5.43V5.68a5.44 5.44 0 0 0-5.39-5.43Zm406.94 281.19H258.65a5.69 5.69 0 0 1-5.67-5.69V5.68A5.69 5.69 0 0 1 258.65 0h191.94a5.69 5.69 0 0 1 5.68 5.68v270.07a5.69 5.69 0 0 1-5.68 5.68ZM258.65.25a5.44 5.44 0 0 0-5.43 5.43v270.07a5.44 5.44 0 0 0 5.43 5.43h191.94a5.44 5.44 0 0 0 5.39-5.43V5.68a5.44 5.44 0 0 0-5.39-5.43Z"/><path fill="#f5f5f5" d="M357.5 113.91h47.75l-.74-6.46h-47.74Zm3.42 30.21h47.75l-.69-6.47h-47.79Zm3.42 30.19h47.74l-.73-6.45h-47.74Zm3.41 30.21h47.75l-.73-6.45h-47.74Zm3.42 30.23h47.74l-.72-6.46h-47.74Zm3.42 30.18h47.74l-.72-6.46h-47.74Zm3.39 30.21h47.74l-.72-6.47h-47.72Z"/><path fill="#ebebeb" d="M425.98 325.87h7.48L407.25 94.59h-7.48Zm-48.69 0h7.49L358.6 94.59h-7.48Z"/><path fill="#f0f0f0" d="M286.78 63.02H409.9v-7.1H286.78Z"/><path fill="#e0e0e0" d="m309.39 36.57-.71-1a1.39 1.39 0 0 0-1.12-.59h-5a1.23 1.23 0 0 0-1.06.59l-.6 1a1.23 1.23 0 0 1-1.06.58h-3a1.21 1.21 0 0 0-1.22 1.32l1 16.88a1.4 1.4 0 0 0 1.38 1.31h23.9a1.21 1.21 0 0 0 1.22-1.31l-1-16.88a1.41 1.41 0 0 0-1.38-1.32h-10.23a1.39 1.39 0 0 1-1.12-.58Z"/><path fill="#e6e6e6" d="M323.07 38.75h-21.89a1.84 1.84 0 0 0-1.8 1.65l-1.31 14.62a1.48 1.48 0 0 0 1.5 1.64h21.89a1.83 1.83 0 0 0 1.8-1.64l1.31-14.62a1.48 1.48 0 0 0-1.5-1.65Z"/><path fill="#e0e0e0" d="m349.15 36.57-.71-1a1.39 1.39 0 0 0-1.12-.59h-5a1.23 1.23 0 0 0-1.05.59l-.61 1a1.2 1.2 0 0 1-1.05.58h-3a1.21 1.21 0 0 0-1.22 1.32l1 16.88a1.4 1.4 0 0 0 1.38 1.31h23.9a1.21 1.21 0 0 0 1.22-1.31l-1-16.88a1.41 1.41 0 0 0-1.38-1.32h-10.24a1.39 1.39 0 0 1-1.12-.58Z"/><path fill="#e6e6e6" d="M362.83 38.75h-21.85a1.84 1.84 0 0 0-1.8 1.65l-1.31 14.62a1.48 1.48 0 0 0 1.5 1.64h21.89a1.83 1.83 0 0 0 1.8-1.64l1.31-14.62a1.48 1.48 0 0 0-1.54-1.65Z"/><path fill="#e0e0e0" d="m388.92 36.57-.72-1a1.39 1.39 0 0 0-1.11-.59h-5.05a1.23 1.23 0 0 0-1.06.59l-.6 1a1.23 1.23 0 0 1-1.06.58h-3a1.22 1.22 0 0 0-1.22 1.32l1 16.88a1.4 1.4 0 0 0 1.38 1.31h23.9a1.21 1.21 0 0 0 1.22-1.31l-1-16.88a1.41 1.41 0 0 0-1.38-1.32h-10.19a1.36 1.36 0 0 1-1.11-.58Z"/><path fill="#e6e6e6" d="M402.59 38.75h-21.88a1.84 1.84 0 0 0-1.8 1.65l-1.32 14.62a1.48 1.48 0 0 0 1.5 1.64h21.89a1.83 1.83 0 0 0 1.8-1.64l1.31-14.62a1.48 1.48 0 0 0-1.5-1.65Z"/><path fill="#f5f5f5" d="M213.26 47.22H68.4v92.24h144.86Z"/><path fill="#e0e0e0" d="M213.26 47.22H68.4v6.25h144.86Z"/><path fill="#fafafa" d="M211.11 50.35a1.88 1.88 0 1 1-1.88-1.88 1.88 1.88 0 0 1 1.88 1.88Zm-6.25 0a1.88 1.88 0 1 1-1.88-1.88 1.88 1.88 0 0 1 1.88 1.88Zm-6.26 0a1.88 1.88 0 1 1-1.87-1.88 1.88 1.88 0 0 1 1.87 1.88Z"/><path fill="#e0e0e0" d="m94.6 64.31-.89-1.25a1.71 1.71 0 0 0-1.39-.72h-6.29a1.49 1.49 0 0 0-1.3.72l-.75 1.25a1.53 1.53 0 0 1-1.31.72h-3.69a1.51 1.51 0 0 0-1.52 1.63l1.21 21a1.73 1.73 0 0 0 1.71 1.63h29.68a1.52 1.52 0 0 0 1.52-1.63l-1.21-21a1.74 1.74 0 0 0-1.71-1.63H95.98a1.75 1.75 0 0 1-1.39-.72Z"/><path fill="#e6e6e6" d="M111.62 67.04H84.39a2.29 2.29 0 0 0-2.23 2l-1.64 18.23a1.84 1.84 0 0 0 1.87 2h27.22a2.29 2.29 0 0 0 2.24-2l1.64-18.19a1.85 1.85 0 0 0-1.87-2.04Z"/><path fill="#e0e0e0" d="m139.98 64.31-.9-1.25a1.7 1.7 0 0 0-1.39-.72h-6.32a1.48 1.48 0 0 0-1.3.72l-.75 1.25a1.51 1.51 0 0 1-1.3.72h-3.75a1.52 1.52 0 0 0-1.52 1.63l1.21 21a1.74 1.74 0 0 0 1.71 1.63h29.72a1.51 1.51 0 0 0 1.52-1.63l-1.21-21a1.73 1.73 0 0 0-1.72-1.63h-12.64a1.74 1.74 0 0 1-1.36-.72Z"/><path fill="#e6e6e6" d="M156.98 67.04h-27.25a2.3 2.3 0 0 0-2.24 2l-1.64 18.23a1.84 1.84 0 0 0 1.87 2h27.26a2.28 2.28 0 0 0 2.23-2l1.64-18.19a1.84 1.84 0 0 0-1.87-2.04Z"/><path fill="#e0e0e0" d="m185.28 64.31-.9-1.25a1.7 1.7 0 0 0-1.39-.72h-6.28a1.5 1.5 0 0 0-1.31.72l-.74 1.25a1.53 1.53 0 0 1-1.3.72h-3.75a1.52 1.52 0 0 0-1.52 1.63l1.21 21a1.74 1.74 0 0 0 1.68 1.64h29.72a1.51 1.51 0 0 0 1.52-1.63l-1.21-21a1.73 1.73 0 0 0-1.71-1.63h-12.62a1.73 1.73 0 0 1-1.39-.72Z"/><path fill="#e6e6e6" d="M202.28 67.04h-27.22a2.29 2.29 0 0 0-2.24 2l-1.64 18.23a1.84 1.84 0 0 0 1.87 2h27.23a2.28 2.28 0 0 0 2.23-2l1.64-18.19a1.84 1.84 0 0 0-1.87-2Z"/><path fill="#e0e0e0" d="m94.6 102.75-.89-1.24a1.72 1.72 0 0 0-1.39-.73h-6.29a1.5 1.5 0 0 0-1.3.73l-.75 1.24a1.52 1.52 0 0 1-1.31.73h-3.69a1.51 1.51 0 0 0-1.52 1.63l1.21 21a1.73 1.73 0 0 0 1.67 1.64h29.72a1.52 1.52 0 0 0 1.52-1.63l-1.21-21a1.74 1.74 0 0 0-1.71-1.63H95.98a1.74 1.74 0 0 1-1.39-.73Z"/><path fill="#e6e6e6" d="M111.62 105.47H84.39a2.29 2.29 0 0 0-2.23 2l-1.64 18.28a1.84 1.84 0 0 0 1.87 2h27.22a2.3 2.3 0 0 0 2.24-2l1.64-18.19a1.85 1.85 0 0 0-1.87-2.09Z"/><path fill="#e0e0e0" d="m139.98 102.75-.9-1.24a1.71 1.71 0 0 0-1.39-.73h-6.32a1.49 1.49 0 0 0-1.3.73l-.75 1.24a1.5 1.5 0 0 1-1.3.73h-3.75a1.52 1.52 0 0 0-1.52 1.63l1.21 21a1.74 1.74 0 0 0 1.71 1.64h29.72a1.51 1.51 0 0 0 1.52-1.63l-1.21-21a1.73 1.73 0 0 0-1.71-1.63h-12.65a1.72 1.72 0 0 1-1.36-.74Z"/><path fill="#e6e6e6" d="M156.98 105.47h-27.25a2.3 2.3 0 0 0-2.24 2l-1.64 18.28a1.85 1.85 0 0 0 1.87 2h27.26a2.29 2.29 0 0 0 2.23-2l1.64-18.19a1.84 1.84 0 0 0-1.87-2.09Z"/><path fill="#e0e0e0" d="m185.28 102.75-.9-1.24a1.71 1.71 0 0 0-1.4-.76h-6.28a1.51 1.51 0 0 0-1.31.73l-.74 1.24a1.51 1.51 0 0 1-1.3.73h-3.75a1.52 1.52 0 0 0-1.52 1.63l1.21 21a1.74 1.74 0 0 0 1.69 1.67h29.72a1.51 1.51 0 0 0 1.52-1.63l-1.21-21a1.73 1.73 0 0 0-1.71-1.63h-12.62a1.71 1.71 0 0 1-1.39-.73Z"/><path fill="#e6e6e6" d="M202.28 105.47h-27.22a2.29 2.29 0 0 0-2.24 2l-1.64 18.28a1.85 1.85 0 0 0 1.87 2h27.23a2.29 2.29 0 0 0 2.23-2l1.64-18.19a1.84 1.84 0 0 0-1.87-2Z"/><path fill="#e0e0e0" d="M91.65 292.29c0-.35 1.18-34.93 6.8-40.39s11.74-.2 12 0l.56-.68c-.07-.06-7.14-5.84-13.18 0-5.87 5.71-7 39.57-7.07 41h.88Z"/><path fill="#e0e0e0" d="M91.16 299.1c0-.42 3.84-41.52-11.15-58.75l-.67.58c14.75 16.95 11 57.67 11 58.08Z"/><path fill="#e0e0e0" d="m91.72 294.75.87-.06c0-.47-2.93-46.72 8.06-56.85l-.59-.65c-11.31 10.41-8.47 55.64-8.35 57.56Z"/><path fill="#e0e0e0" d="M90.29 294.75h.87c0-1.28-.37-31.25-8.86-36.14a6 6 0 0 0-5.51-.53c-5.14 2.12-7.7 11.29-7.8 11.68l.84.23c0-.09 2.55-9.14 7.29-11.11a5.15 5.15 0 0 1 4.73.49c8.07 4.63 8.42 35.06 8.43 35.37Zm3.31 0 .87-.05c0-.24-1.28-23.69 5-31.95 1.53-2 3.19-2.95 4.95-2.83 4.15.28 7.61 6.35 7.65 6.41l.77-.43c-.15-.27-3.74-6.54-8.35-6.87-2.07-.15-4 .93-5.72 3.17-6.48 8.55-5.23 31.55-5.17 32.55Z"/><path fill="#e0e0e0" d="M92.22 297.93c.16-2.27 4.13-55.81-2.84-65.25l-.7.53c6.78 9.17 2.7 64.11 2.66 64.66l.88.07Z"/><path fill="#ebebeb" d="M74.9 263.48s4.18 1.54 2.94 5.18-14.46 9.64-14.46 9.64-5.54-5.08-.45-13.34 11.87-4.09 12-1.48Zm18.18-6.94s-4.45-.19-4.7 3.65 9.6 14.47 9.6 14.47 7.07-2.56 5.55-12.14-9.39-8.34-10.49-6Zm3.77-18.38s-3-.32-2.74-2.13 11.54-6.47 18.21 1.06c0 0-4.26 7.34-10.43 7.43s-5.04-6.36-5.04-6.36Zm-5.54-4.41s2.68 1.3 3.44-.36-6.37-11.6-16-8.74c0 0-.26 8.49 4.93 11.84s7.63-2.74 7.63-2.74Z"/><path fill="#ebebeb" d="M105.37 262.01s-2-1.65.16-2.46 13.06-.58 13.17 10.18c0 0-12.64 2.1-14.2-2s.87-5.72.87-5.72ZM79.6 237.89s2.05-1.66-.16-2.47-13.06-.58-13.17 10.18c0 0 12.64 2.1 14.2-2s-.87-5.72-.87-5.72Zm6.68 8.66s.18-2-1.44-1.22-7.28 6.89-1.41 12.69c0 0 7.89-5.86 6.47-8.9s-3.61-2.57-3.61-2.57Zm20.92 2.87s-1.23-1.6.56-1.8 9.83 1.95 8 10c0 0-9.79-.74-10.2-4.07s1.68-4.1 1.68-4.1Z"/><path fill="#f0f0f0" d="M74.12 324.53h33.59l3.63-36.78H70.5Z"/><path fill="#e6e6e6" d="M68.71 291.75h44.43v-8.1H68.71Z"/><path fill="#f5f5f5" d="M248.5 370.75c106.44 0 192.73-5 192.73-11.26s-86.25-11.27-192.73-11.27-192.73 5-192.73 11.27 86.29 11.26 192.73 11.26Z"/><path fill="none" stroke="#091639" stroke-linecap="round" stroke-linejoin="round" stroke-width=".71" d="M180.44 184.25c-.09 3.66-.75 8.31-3.63 10.91-3.7 3.33-9.93 1-12.3-2.85"/><path fill="#eec1bb" d="m180.24 212.33 9 6.82s2.3.3 2.94 1.14 2.81 6.81 2.32 7.54-5.3 1.74-6.17.72-2-6.44-1.91-7l-11.54-7.53 5.39-1.7Z"/><path fill="#388cc8" d="m186.43 215.75-3.13 5.36s-16.41-10.28-19.11-11.91c-.59-.36-1.8-2.06-3.23-4.55-5.14-8.91-13.13-27.91-5.61-31.67 4.12-2.06 6.5 4.49 6.5 4.49s.47 2.08 1.21 5c.29 1.19.61 2.52 1 3.91 1.66 6.51 3.81 14.33 4.83 15.25 1.77 1.62 17.57 14.06 17.57 14.06Z"/><path fill="#091639" d="M108 204.93c-5.14-8.91-13.13-27.91-5.61-31.67 4.12-2.06 6.5 4.49 6.5 4.49s.47 2.08 1.21 5a28.26 28.26 0 0 1 1 3.91c.83 4.6 1.3 12.3-3.07 18.21Z" opacity=".2" style="isolation:isolate" transform="translate(52.98 -.25)"/><path fill="#388cc8" d="M137.67 192.44s-5.35 1.83-14.33-2.25c-3.92-1.79-13.36-11.44-13.36-11.44s8.15-12.06 30.66-16.43c0 0 14.79 1.93 26 26-.08 0-11.02 5.95-28.97 4.12Z"/><path fill="#eec1bb" d="m155.46 206.4 7.1 8.76s2.16.84 2.59 1.81 1.1 7.27.46 7.87-5.55.44-6.17-.76-.42-6.74-.2-7.26l-9.42-10.07Z"/><path fill="#e4897b" d="m154.55 341.75-6 1.06-2.47-8.22-2.26-7.55 7-2.44 2 9.09Z"/><path fill="#091639" d="m99.81 334.14-6.71.86-2.28-7.63 7-2.48Z" opacity=".2" style="isolation:isolate" transform="translate(52.98 -.25)"/><path fill="#e4897b" d="M114.3 344.56h-6.12l-1-8.63-.92-7.88 7.28-1.21.4 9.38Z"/><path fill="#091639" d="m61 336.55-6.76-.3-.92-7.92 7.28-1.22Z" opacity=".2" style="isolation:isolate" transform="translate(52.98 -.25)"/><path fill="#091639" d="M122.6 356.75a10.21 10.21 0 0 0-3.27-1.78s-3.56-3.53-5.27-14.16l-4.65-1.21a4 4 0 0 0-4.23 1.65 2.47 2.47 0 0 0-.3.61 26.7 26.7 0 0 0-.5 3.46 95.91 95.91 0 0 0-.07 11.67h.85l.33-7.33c.13-2.49 2 .42 2.58 3.1s1.7 5.53 7.15 5.66c6.35.12 9-.13 7.38-1.68Zm40.62-.77a10.51 10.51 0 0 0-3.27-1.78s-3.56-3.53-5.27-14.16l-4.65-1.21a4 4 0 0 0-4.24 1.65 2.37 2.37 0 0 0-.3.62 26.78 26.78 0 0 0-.51 3.45 95.91 95.91 0 0 0 0 11.67h.84l.34-7.33c.12-2.49 2 .43 2.57 3.1s1.7 5.54 7.15 5.67c6.35.11 9-.13 7.39-1.69Zm-9.85-26.87-9.91 1.75c-10-24.95-17.12-45.76-22.14-63-2.7-9.33-5-17.62-6.58-25l.31 27.15v61.17h-9.77c-23.43-111.71-26.3-131 2.21-150.21l3-2.76s1 5.09 9.62 10.33c7.21 4.39 16.29 4.69 16.29 4.69l-6.54 6.22 1.32 9.72 11.45 59.19 10.72 60.76Z"/><path fill="#fff" d="m153.37 329.11-9.91 1.75c-10-24.95-17.12-45.76-22.14-63-2.7-9.33-5-17.62-6.58-25l.31 27.15v61.17h-9.77c-23.43-111.71-26.3-131 2.21-150.21l3-2.76s1 5.09 9.62 10.33c7.21 4.39 16.29 4.69 16.29 4.69l-6.54 6.22 1.32 9.72 11.45 59.19 10.72 60.76Z" opacity=".2"/><path fill="#091639" d="M68.33 268.07a395.02 395.02 0 0 1-6.43-25 229.72 229.72 0 0 1 1.89-26s4.29 33.58 4.54 51Z" opacity=".2" style="isolation:isolate" transform="translate(52.98 -.25)"/><path fill="#091639" d="M110.52 178.2s8.27 10.85 27.15 14.25l-3.55 2.94a42 42 0 0 1-26.64-14.43Z"/><path fill="#fff" d="M131.73 191.75a1.53 1.53 0 0 0-.87-.84l-3-1.21a1.76 1.76 0 0 0-2.1.51l-1 1.49a1.16 1.16 0 0 0-.15 1.08 1.51 1.51 0 0 0 .73.79l.13.06 3 1.21a1.78 1.78 0 0 0 2.09-.51l1-1.48a1.19 1.19 0 0 0 .15-1.08Zm-2.94 2.46-3-1.22a.71.71 0 0 1-.42-.41.54.54 0 0 1 .07-.52l1-1.5a.86.86 0 0 1 1-.24l3 1.21h.06a.74.74 0 0 1 .36.38.54.54 0 0 1-.07.52l-.16.23-.1-.07-.82-.35a.63.63 0 0 0-.75.2.45.45 0 0 0 .26.63l.83.35-.35.49a.91.91 0 0 1-1 .25Z"/><path fill="#091639" d="M182.36 159.84a13.93 13.93 0 0 1 2.83 10.91c-.7 5.8-2.53 14.23-1.52 19.5s-1.69 10.44-4.2 10.5c0 0 3-2.2 2.91-5.4s-.94-8.6-.94-8.6-.43 5.43-4 7.49-12.39-1.29-15.23-9.6-7.36-10.57-9.63-14.17-2.14-7 3.35-10.19 21.73-6.32 26.44-.48Z"/><path fill="#eec1bb" d="m160.09 184.25-2.59-1.38c-2 3-9.76 0-9.76 0-3.44-6.09 1.83-14.5 1.83-14.5 1.49 2.76 6.63 2.76 7.73 2.72h.21l2.6 13.17Z"/><path fill="#091639" d="m107.11 184.5-2.59-1.38a14.34 14.34 0 0 0-4.9-1.09s-.41-6.28 3.91-10.2a2.46 2.46 0 0 1 .78-.5h.21Z" opacity=".2" style="isolation:isolate" transform="translate(52.98 -.25)"/><path fill="#091639" d="M177.08 157.82s9.44 4.56 6.47 12.63a12.88 12.88 0 0 1-10.9 8.45Z"/><path fill="#eec1bb" d="M173.86 161.05c6.69 3.85 6.78 8.68 3.31 15.85-4.34 9-9.77 14-17.07 7.35-9.92-9.05 2.66-29.6 13.76-23.2Z"/><path fill="#d4827d" d="M173.06 174.04a16.32 16.32 0 0 0 .35 3.9 2.15 2.15 0 0 1-2.2-.26Z"/><path fill="#091639" d="M169.28 171.13c-.3.56-.84.85-1.22.65s-.43-.82-.12-1.38.84-.84 1.22-.64.43.81.12 1.37Z"/><path fill="#091639" d="m168.98 169.75 1.47.19s-1.15.63-1.47-.19Zm7.28 5c-.31.56-.85.85-1.22.65s-.43-.82-.12-1.37.84-.85 1.22-.65.43.86.12 1.37Z"/><path fill="#091639" d="m175.98 173.36 1.47.19s-1.16.69-1.47-.19Z"/><path fill="none" stroke="#091639" stroke-linecap="round" stroke-linejoin="round" stroke-width=".71" d="M171.87 166.47a4 4 0 0 0-3.48-.65m8.5 3.17a3.58 3.58 0 0 1 2.35 2.09"/><path fill="#091639" d="M160.07 168.12s6.29-3.71 8.25-8.22c0 0 16.37 2.21 9.28 16 0 0 8.17-11.22-3.18-18.1s-21 6.76-17.93 15.19c0 0-.34-2.61 3.57-4.93Z"/><path fill="#091639" d="M178.5 158.04s3.86 2.09 4.45 4.47-14.28 5.4-20.54 2.74c0 0-5.54 3.92-5.92 7.81 0 0-5.28-5.26.67-15.08s18.41-6.85 21.34.06Z"/><path fill="#eec1bb" d="M160.34 170.17a3.37 3.37 0 0 0-1.62-4.5c-2.2-1-5.63 2.72-1.07 6.71.66.58 1.49.09 2.68-2.2Z"/><path fill="none" stroke="#091639" stroke-linecap="round" stroke-linejoin="round" stroke-width=".71" d="M182.9 163.17s-7.15 6.77-16.41 4.59m0 8.52s-.56 2.23 2.11 4.48"/><path fill="#091639" d="M98.59 192.64a63.35 63.35 0 0 1-13.9.05 10.18 10.18 0 0 1-2.73.39 30.29 30.29 0 0 1-.78-5.54c-.27-6.13 1.09-17 2.57-18.94s8.31.91 9.12 6.07c0 0 .94 13.94 2.18 15.14a48.4 48.4 0 0 0 3.53 2.83Z" opacity=".2" style="isolation:isolate" transform="translate(52.98 -.25)"/><path fill="#388cc8" d="M140.61 163.17c-10.65 1.55-2.22 34.18 0 36.41s15.73 16.17 15.73 16.17l4.32-4.46s-12.38-15.89-13.68-17.89-1.08-25.21-1.08-25.21.26-5.82-5.24-5Zm275.73-95.94H224.79v291.93h191.55Z"/><path fill="#fff" d="M363.36 67.48H171.81v291.93h191.55Z" opacity=".6" style="isolation:isolate" transform="translate(52.98 -.25)"/><path fill="#091639" d="M363.36 67.48H289v291.93h74.39Zm-80.67 156.2H177.42v105.38h105.27Z" opacity=".2" style="isolation:isolate" transform="translate(52.98 -.25)"/><path fill="#091639" d="M282.69 223.68h-26.58v105.38h26.58Z" opacity=".2" style="isolation:isolate" transform="translate(52.98 -.25)"/><path fill="#091639" d="m177.42 223.68 30.76 30.79h74.51v-30.79Zm105.27-114.31H177.42v105.38h105.27Z" opacity=".2" style="isolation:isolate" transform="translate(52.98 -.25)"/><path fill="#388cc8" d="M332.67 109.12H230.4V214.5h102.27Z"/><path fill="#fff" d="M279.69 109.37H177.42v105.38h102.27Z" opacity=".7" style="isolation:isolate" transform="translate(52.98 -.25)"/><path fill="#fff" d="M295.58 121.75h-36.6v9.44h36.6Z"/><path fill="#091639" d="m258.53 168.86-9.68-12.78h-1.93v8.67h-2.55l3.28 4.1a.26.26 0 0 1-.21.43h-27.58a1.57 1.57 0 0 1-1.25-.63l-3-3.9H204.6l8 10a1.57 1.57 0 0 0 1.23.59h43.46a1.58 1.58 0 0 0 1.57-1.57v-3.93a1.58 1.58 0 0 0-.32-1Z" opacity=".1" style="isolation:isolate" transform="translate(52.98 -.25)"/><path fill="#388cc8" d="M248.75 155.19h51.78a1.54 1.54 0 0 1 1.54 1.54v7.55a1.54 1.54 0 0 1-1.54 1.54h-51.78a1.53 1.53 0 0 1-1.54-1.54v-7.53a1.53 1.53 0 0 1 1.54-1.54Z"/><path fill="#fff" d="M195.77 155.44h39.39a1.53 1.53 0 0 1 1.54 1.56v7.55a1.53 1.53 0 0 1-1.54 1.54h-39.39a1.53 1.53 0 0 1-1.54-1.54V157a1.53 1.53 0 0 1 1.54-1.56Z" opacity=".2" style="isolation:isolate" transform="translate(52.98 -.25)"/><path fill="none" stroke="#091639" stroke-linecap="round" stroke-linejoin="round" stroke-width=".5" d="M261.98 127.47a8.61 8.61 0 0 0 4.76-3.87 5.58 5.58 0 0 0-2.39 4.51c1.77.28 2.56-2.43 4.28-2.9l-.59 2.62a3 3 0 0 0 2.47-.85 5.14 5.14 0 0 0 3.66-1.42 1.36 1.36 0 0 0-1.67-.58l5.61.53a1 1 0 0 0-1.23 1 1 1 0 0 0 1.59.53 1 1 0 0 0 .34-.52 1.72 1.72 0 0 1 .16-.5c.2-.28.6-.25.93-.2a39.74 39.74 0 0 0 10.22.26"/><path fill="#091639" d="m282.7 274 6.27 7.81v77.65H195l-23.18-25.57Z" opacity=".1" style="isolation:isolate" transform="translate(52.98 -.25)"/><path fill="#388cc8" d="M279.98 79.63h-48.92v19.12h48.92Z"/><path fill="#fff" d="M247.38 79.63h-16.32v19.12h16.32Z"/><path fill="#091639" d="M244.26 86.29c-.53 2.91-.84 4.22.1 6.38s.43 2.66-.61 3-9 2.33-9.56-.55.52-2.92 0-5.27-.84-5.13.08-6.47 10 2.88 10 2.88Z"/><path fill="#388cc8" d="M231.98 96.34a11.52 11.52 0 0 1 6.68-1.77 22.44 22.44 0 0 1 8 1.77v1.41h-14.68v-1.41Z"/><path fill="#eec1bb" d="M241.68 95.17a3 3 0 0 1-1.8 1.84c-1.37-.3-3.34-2.27-3.34-2.27 1.17-.66.94-2.6.67-3.78-.1-.43-.2-.76-.24-.87l1.46-.22 2.16 1.88s0 .15-.08.38a5.81 5.81 0 0 0-.11 2.31.77.77 0 0 0 .12.24 1.49 1.49 0 0 0 1.18.54Z"/><path fill="#091639" d="M187.52 94.88a2.43 2.43 0 0 1-.72-.11c-1.38-.43-2.19-2.36-2.57-3.56a7 7 0 0 1-.24-.87l3.54 2.07a5.81 5.81 0 0 0-.11 2.31.77.77 0 0 0 .12.24Z" opacity=".2" style="isolation:isolate" transform="translate(52.98 -.25)"/><path fill="#091639" d="M240.17 81.75s3.75-.12 4.14 2.92a4.63 4.63 0 0 1-2.05 4.5l-2.1-7.42Z"/><path fill="#eec1bb" d="M239.68 83.29c2.77.11 3.59 1.62 3.68 4.48.12 3.56-.77 6.06-4.19 5.17-4.65-1.21-4.08-9.82.5-9.64Z"/><path fill="#d4827d" d="M241.59 87.54a5.81 5.81 0 0 0 .76 1.17.76.76 0 0 1-.74.29v-1.46Z"/><path fill="#091639" d="M239.91 87.25c0 .23-.13.41-.28.41s-.27-.19-.27-.42.13-.41.28-.41.27.19.27.42Z"/><path fill="#091639" d="m239.57 86.84.5-.19s-.25.41-.5.19Zm3.15.4c0 .23-.13.41-.27.41s-.27-.19-.27-.42.13-.41.28-.41.26.19.26.42Z"/><path fill="#091639" d="m242.4 86.83.49-.19s-.25.41-.49.19Zm-3.66-.99a.2.2 0 0 1-.08 0 .13.13 0 0 1 0-.18 1.53 1.53 0 0 1 1.33-.41.13.13 0 1 1-.05.25 1.32 1.32 0 0 0-1.09.33.13.13 0 0 1-.11.01Zm4.31-.09a.12.12 0 0 1-.07 0 1.11 1.11 0 0 0-1-.25.13.13 0 0 1-.16-.08.12.12 0 0 1 .08-.16 1.41 1.41 0 0 1 1.2.29.13.13 0 0 1 0 .18.12.12 0 0 1-.1 0Z"/><path fill="#091639" d="M236.48 87.83a8.28 8.28 0 0 0 1.25-4s5.56-2 5.61 3.54c0 0 .73-4.91-4-5.2s-5.53 5.64-3.17 7.8c0 0-.53-.77.31-2.16Z"/><path fill="#091639" d="M240.66 81.56s1.57 0 2.14.68-3.62 4.08-6 4.29c0 0-1.1 2.16-.58 3.46 0 0-2.54-.79-2.29-4.9a4.35 4.35 0 0 1 6.77-3.53Z"/><path fill="#eec1bb" d="M236.92 88.43a1.21 1.21 0 0 0-1.26-1.16c-.86.06-1.33 1.8.77 2.31.3.07.49-.22.49-1.14Z"/><path fill="#091639" d="M238.46 86.75a.12.12 0 0 1-.12-.1.11.11 0 0 1 .09-.14 6.87 6.87 0 0 0 4.35-4.1.13.13 0 1 1 .24.08 7.1 7.1 0 0 1-4.52 4.26Zm2.83 3.79a1.81 1.81 0 0 1-1.51-1.17.12.12 0 0 1 .09-.15.11.11 0 0 1 .15.09s.2.74 1.32 1a.13.13 0 0 1 .1.15.13.13 0 0 1-.15.08Zm3.57 2.42a.13.13 0 0 1-.12-.08 2.56 2.56 0 0 0-.22-.47 4.15 4.15 0 0 1-.28-2.83v-.2c.27-2.22.59-4.73-1.17-6.28a.13.13 0 0 1 .17-.19c1.86 1.65 1.53 4.22 1.25 6.5v.2a3.94 3.94 0 0 0 .26 2.69 3.08 3.08 0 0 1 .23.51.12.12 0 0 1-.08.16Z"/><path fill="#fff" d="M264.47 84.55h-13.49a1.19 1.19 0 1 1 0-2.37h13.49a1.19 1.19 0 1 1 0 2.37Zm9.35 5.76h-23.09a.94.94 0 1 1 0-1.87h23.09a.94.94 0 0 1 0 1.87Zm-3.98 3.6h-19.11a.94.94 0 1 1 0-1.87h19.11a.94.94 0 1 1 0 1.87Z"/><path fill="#388cc8" d="M327.63 234.97h-56.34l-.57-3.64a1.66 1.66 0 0 0-1.68-1.41h-15.55a2.16 2.16 0 0 0-2 1.41l-1.37 3.64h-12.64a5 5 0 0 0-4.83 4.39l-7.67 70.65a3.85 3.85 0 0 0 3.88 4.39h90.12a5 5 0 0 0 4.83-4.39l7.7-70.65a3.85 3.85 0 0 0-3.88-4.39Z"/><path fill="#091639" d="M274.65 235.22h-56.34l-.57-3.64a1.66 1.66 0 0 0-1.68-1.41h-15.55a2.16 2.16 0 0 0-2 1.41l-1.37 3.64H184.5a5 5 0 0 0-4.83 4.39L172 310.26a3.85 3.85 0 0 0 3.88 4.39H266a5 5 0 0 0 4.83-4.39l7.7-70.65a3.85 3.85 0 0 0-3.88-4.39Z" opacity=".4" style="isolation:isolate" transform="translate(52.98 -.25)"/><path fill="#388cc8" d="m225.08 311.69 3-73.47h97.5l-4.85 71.85Z"/><path fill="#fff" d="m172.1 311.94 3-73.47h97.5l-4.85 71.85Z" opacity=".7" style="isolation:isolate" transform="translate(52.98 -.25)"/><path fill="#388cc8" d="M317.72 314.67h-90.15a4.19 4.19 0 0 1-4.33-4.09l.54-65.89a4.28 4.28 0 0 1 4.39-4.09h90.16a4.18 4.18 0 0 1 4.32 4.09l-.53 65.89a4.28 4.28 0 0 1-4.4 4.09Z"/><path fill="#091639" d="M264.74 314.92h-90.15a4.19 4.19 0 0 1-4.33-4.09l.54-65.89a4.28 4.28 0 0 1 4.39-4.09h90.16a4.18 4.18 0 0 1 4.32 4.09l-.53 65.89a4.28 4.28 0 0 1-4.4 4.09Z" opacity=".25" style="isolation:isolate" transform="translate(52.98 -.25)"/><path fill="#091639" d="m228.56 240.85 1.83 66.85h-49.33l-2.86-66.85Z" opacity=".15" style="isolation:isolate" transform="translate(52.98 -.25)"/><path fill="#388cc8" d="M266.98 232.75h-56.35l-1-3.62a1.89 1.89 0 0 0-1.84-1.41h-15.52a1.9 1.9 0 0 0-1.84 1.41l-1 3.62h-12.62a4.36 4.36 0 0 0-4.36 4.36v70.29a4.36 4.36 0 0 0 4.36 4.36h90.17a4.36 4.36 0 0 0 4.36-4.36v-70.3a4.36 4.36 0 0 0-4.36-4.35Z"/><path fill="#091639" d="M214 233h-56.35l-1-3.62a1.89 1.89 0 0 0-1.84-1.41h-15.52a1.9 1.9 0 0 0-1.84 1.41l-1 3.62h-12.62a4.36 4.36 0 0 0-4.36 4.36v70.29a4.36 4.36 0 0 0 4.36 4.36H214a4.36 4.36 0 0 0 4.36-4.36v-70.3A4.36 4.36 0 0 0 214 233Z" opacity=".15" style="isolation:isolate" transform="translate(52.98 -.25)"/><path fill="#388cc8" d="m172.79 309.05-5-73.07h97.47l3 71.47Z"/><path fill="#fff" d="m119.81 309.3-5-73.07h97.47l3 71.47Z" opacity=".8" style="isolation:isolate" transform="translate(52.98 -.25)"/><path fill="#388cc8" d="M265.75 312.02h-90.16a4.78 4.78 0 0 1-4.77-4.06l-6.65-65.56a3.74 3.74 0 0 1 4-4.07h90.15a4.77 4.77 0 0 1 4.77 4.07l6.65 65.56a3.74 3.74 0 0 1-3.99 4.06Z"/><path fill="#388cc8" d="m242.26 287.87 93.42-14.12v50.9l-86.58 16.6Z"/><path fill="#fff" d="M189.28 288.12 282.7 274v50.9l-86.58 16.6Z" opacity=".5" style="isolation:isolate" transform="translate(52.98 -.25)"/><path fill="#fff" d="m189.28 288.12 1.31 1.44 92.11-14.18V274Z" opacity=".7" style="isolation:isolate" transform="translate(52.98 -.25)"/><path fill="#091639" d="m204.61 285.79 4.21 1 3.47 51.6-16.17 3.1-6.84-53.33Z" opacity=".2" style="isolation:isolate" transform="translate(52.98 -.25)"/><path fill="#388cc8" d="M257.59 347.9H152.32l-6.62-103.8h105.28Z"/><path fill="#fff" d="M204.61 348.15H99.34l-6.62-103.8H198Z" opacity=".7" style="isolation:isolate" transform="translate(52.98 -.25)"/><path fill="#091639" d="M204.61 348.15h-3L195 244.35h3Z" opacity=".2" style="isolation:isolate" transform="translate(52.98 -.25)"/><path fill="#fff" d="M212.26 265.82h-36.57l-.58-9.31h36.56Z"/><path fill="#091639" d="m177.57 302.94-10.49-12.58h-1.92l.55 8.54h-2.55l3.54 4a.25.25 0 0 1-.18.42h-27.58a1.7 1.7 0 0 1-1.29-.62l-3.2-3.84h-11l8.6 9.82a1.69 1.69 0 0 0 1.27.58h43.45a1.45 1.45 0 0 0 1.48-1.55l-.25-3.87a1.66 1.66 0 0 0-.38-.94Z" opacity=".1" style="isolation:isolate" transform="translate(52.98 -.25)"/><path fill="#388cc8" d="M219.39 299.95h-51.78a1.66 1.66 0 0 1-1.64-1.53l-.48-7.43a1.42 1.42 0 0 1 1.44-1.52h51.78a1.65 1.65 0 0 1 1.64 1.52l.48 7.43a1.43 1.43 0 0 1-1.44 1.53Z"/><path fill="#fff" d="M154 300.2h-39.37a1.66 1.66 0 0 1-1.64-1.53l-.48-7.43a1.42 1.42 0 0 1 1.44-1.52h39.4a1.65 1.65 0 0 1 1.64 1.52l.47 7.43a1.43 1.43 0 0 1-1.46 1.53Z" opacity=".2" style="isolation:isolate" transform="translate(52.98 -.25)"/><path fill="none" stroke="#091639" stroke-linecap="round" stroke-linejoin="round" stroke-width=".5" d="M178.77 261.18a3.5 3.5 0 0 0 3.85-1.16c0 .78-.23 1.8-.18 2.68a8.09 8.09 0 0 0 1.69-2.44c-.73 1.63 1.19 2 2.34 1.46a2.3 2.3 0 0 0 1.32-1.93c0-.27-.11-.58-.37-.64s-.46.17-.6.38c-.45.7-1 2.65.12 2.9s2.41-1.64 2.72-2.41a1.66 1.66 0 0 0-.93 1.65c1.15-.06 2.73.23 2.81-1.34-.1 2.05 1.84 1.36 2.56 0-.23.73.85 1.1 1.61 1.09l10.15-.23"/></g></svg>