<svg xmlns="http://www.w3.org/2000/svg" viewBox="0 0 397 295"><path fill="#ebebeb" d="M396.89 259.25H.89v.19h396Zm-208.28-35.31H35.67a4.53 4.53 0 0 1-4.52-4.53V4.52A4.53 4.53 0 0 1 35.67 0h152.94a4.53 4.53 0 0 1 4.52 4.52v214.89a4.53 4.53 0 0 1-4.52 4.53ZM35.67.2a4.33 4.33 0 0 0-4.32 4.32v214.89a4.33 4.33 0 0 0 4.32 4.33h152.94a4.33 4.33 0 0 0 4.32-4.33V4.52A4.33 4.33 0 0 0 188.61.2Zm324.25 223.74H207a4.53 4.53 0 0 1-4.52-4.53V4.52A4.53 4.53 0 0 1 207 0h152.92a4.53 4.53 0 0 1 4.52 4.52v214.89a4.53 4.53 0 0 1-4.52 4.53ZM207 .2a4.33 4.33 0 0 0-4.32 4.32v214.89a4.33 4.33 0 0 0 4.32 4.33h152.92a4.33 4.33 0 0 0 4.32-4.33V4.52A4.33 4.33 0 0 0 359.92.2ZM62.1 266.78H41.51v.2H62.1Zm89.42-2.14h-35.67v.2h35.67Zm-40.52 9.5H62.89v.2H111Zm245.28-1.33h-15.23v.2h15.23Zm-22.28 0h-43.8v.2H334Zm-70.54-3.35h-59v.2h59Z"/><path fill="#e6e6e6" d="m152 127.06-10 132.19h96.61l10-132.19Zm60.76 93.43a21.44 21.44 0 0 1-21 19.53 17.86 17.86 0 0 1-18.05-19.53l3.54-46.49a21.43 21.43 0 0 1 21-19.53A17.85 17.85 0 0 1 216.31 174Z"/><path fill="#e6e6e6" d="M269.28 259.25H128.41l.81-8.68H270.1Z"/><path fill="#e0e0e0" d="M323.41 210.16h12.48a1.22 1.22 0 0 0 1.22-1.3v-.88a1.38 1.38 0 0 0-1.36-1.3h-12.52A1.22 1.22 0 0 0 322 208l.05.88a1.39 1.39 0 0 0 1.36 1.28Zm-20.85 0H315a1.22 1.22 0 0 0 1.23-1.3l-.05-.88a1.38 1.38 0 0 0-1.36-1.3h-12.44a1.22 1.22 0 0 0-1.23 1.3l.05.88a1.39 1.39 0 0 0 1.36 1.3Z"/><path fill="#e0e0e0" d="M345.6 209.19H54.43a6.47 6.47 0 0 1-6.38-6.08L39.28 28.28a5.73 5.73 0 0 1 5.78-6.08h291.16a6.45 6.45 0 0 1 6.38 6.08l8.77 174.83a5.73 5.73 0 0 1-5.77 6.08Z"/><path fill="#e6e6e6" d="M349.16 209.19H58a6.47 6.47 0 0 1-6.39-6.08L42.86 28.28a5.72 5.72 0 0 1 5.77-6.08h291.15a6.47 6.47 0 0 1 6.39 6.08l8.76 174.83a5.72 5.72 0 0 1-5.77 6.08Z"/><path fill="#f5f5f5" d="M59.71 197 51.55 34.4a3.59 3.59 0 0 1 3.62-3.81h278.91a4 4 0 0 1 4 3.81l8.15 162.6a3.59 3.59 0 0 1-3.62 3.81H63.71a4 4 0 0 1-4-3.81Z"/><path fill="#fff" d="M68.74 38.91a3.19 3.19 0 0 1-3.2 3.38A3.59 3.59 0 0 1 62 38.91a3.17 3.17 0 0 1 3.2-3.37 3.59 3.59 0 0 1 3.54 3.37Zm15.26 0a3.18 3.18 0 0 1-3.2 3.38 3.6 3.6 0 0 1-3.54-3.38 3.18 3.18 0 0 1 3.2-3.37A3.58 3.58 0 0 1 84 38.91Zm15.27 0a3.19 3.19 0 0 1-3.2 3.38 3.59 3.59 0 0 1-3.54-3.38 3.17 3.17 0 0 1 3.2-3.37 3.59 3.59 0 0 1 3.54 3.37Z"/><path fill="#fff" d="M88.71 200.79h40.19l36.75-170.2h-40.19Zm172.97 0h10.18l36.75-170.2h-10.18Zm-123.84 0h57l36.75-170.2h-57Z" opacity=".6"/><path fill="#f5f5f5" d="M198.9 295c84.8 0 153.56-4 153.56-9s-68.76-9-153.56-9-153.57 4-153.57 9 68.76 9 153.57 9Z"/><path fill="#091639" d="M286.49 164.76h-.29C265.11 163 250.59 145 250 144.23a3.54 3.54 0 1 1 5.53-4.41c.17.22 12.6 15.53 29.81 17.72 5.58-5.54 10.28-20.18 9.76-24.61v-.13c-.12-1.42-.38-6.3 1-9.21a3.53 3.53 0 1 1 6.37 3.06 16.56 16.56 0 0 0-.35 5.53c.79 7.29-5.52 25.67-13.46 31.82a3.53 3.53 0 0 1-2.17.75Zm-167.73-19.19a52.12 52.12 0 0 1-38.46-17.64 3.54 3.54 0 0 1-.21-4.46c5.72-7.69 15.81-25.84 17.39-31.76a8.66 8.66 0 0 0-3.28-3.43 3.57 3.57 0 0 1-2-2.85l-.57-5.79a3.54 3.54 0 1 1 7-.69l.4 4a17.66 17.66 0 0 1 5.39 6.84 3.64 3.64 0 0 1 .26 1.79c-.73 6.29-10.92 24.46-17.19 33.65a44.25 44.25 0 0 0 32.91 13.2 3.53 3.53 0 1 1 .64 7 22.89 22.89 0 0 1-2.29.09Zm114.09 140.35h-9.48a3.54 3.54 0 0 1-3.42-4.48c2.48-8.9 3.69-16.14 4.61-27.48-3.35-15.8-6.52-30.25-6.55-30.4a3.54 3.54 0 0 1 6.92-1.52c0 .15 3.26 14.94 6.67 30.94a3.5 3.5 0 0 1 .06 1 144.92 144.92 0 0 1-3.66 24.86h4.9a3.54 3.54 0 0 1 0 7.08Zm-73.3 0h-5.36a3.54 3.54 0 0 1-3.5-4c.91-6.49 5.58-18.31 10.54-30.2 1.76-15.67 3.21-29.13 3.23-29.27a3.54 3.54 0 0 1 7 .76c0 .14-1.5 13.91-3.29 29.81a3.3 3.3 0 0 1-.25 1c-3.52 8.41-7.52 18.33-9.35 24.89h1a3.54 3.54 0 1 1 0 7.08Z"/><path fill="#fff" d="m162.63 44.36-41.24 41.22c-2.08 45.69-1.9 93.69 0 143.46h136.35c-2.7-64.22-3-126 0-184.67h-95.11Z"/><path fill="#091639" d="M257.75 229.73H121.4a.71.71 0 0 1-.71-.68c-2-51.67-2-100 0-143.51a.68.68 0 0 1 .21-.46l41.24-41.23a.7.7 0 0 1 .5-.2h95.12a.7.7 0 0 1 .51.22.72.72 0 0 1 .2.52c-2.85 56.48-2.85 116.87 0 184.6a.75.75 0 0 1-.2.53.74.74 0 0 1-.51.21Zm-135.67-1.42H257c-2.8-67.18-2.8-127.14 0-183.25h-94.07l-40.84 40.82c-2 43.25-2 91.16 0 142.43Z"/><path fill="#091639" d="m161.55 184 1.49-.12a3.3 3.3 0 0 0 .56 1.47 2.86 2.86 0 0 0 1.25.93 4.77 4.77 0 0 0 1.85.35 4.25 4.25 0 0 0 1.58-.27 2.11 2.11 0 0 0 1-.73 1.67 1.67 0 0 0 .29-1 1.58 1.58 0 0 0-.37-1 2.65 2.65 0 0 0-1.11-.7 20.77 20.77 0 0 0-2.15-.59 11.73 11.73 0 0 1-2.35-.74 3.54 3.54 0 0 1-1.33-1.12 2.87 2.87 0 0 1-.49-1.49 2.92 2.92 0 0 1 .44-1.69 3 3 0 0 1 1.44-1.2 5.57 5.57 0 0 1 2.18-.41 6.14 6.14 0 0 1 2.37.43 3.79 3.79 0 0 1 1.62 1.26 3.65 3.65 0 0 1 .67 1.88l-1.51.11a2.61 2.61 0 0 0-.91-1.71 3.41 3.41 0 0 0-2.12-.57 3.3 3.3 0 0 0-2.06.52 1.51 1.51 0 0 0-.6 1.27 1.47 1.47 0 0 0 .52 1.06 6.62 6.62 0 0 0 2.42.85 17.37 17.37 0 0 1 2.69.76 4 4 0 0 1 1.6 1.22 3.12 3.12 0 0 1 .57 1.7 3 3 0 0 1-.46 1.8 3.39 3.39 0 0 1-1.5 1.31 5.34 5.34 0 0 1-2.28.47 7.09 7.09 0 0 1-2.74-.47 4.1 4.1 0 0 1-1.79-1.43 4.22 4.22 0 0 1-.76-2.14Zm17.45 1.09 1.53.19a3.52 3.52 0 0 1-1.23 2.06 3.83 3.83 0 0 1-2.44.73 4.19 4.19 0 0 1-3.08-1.17 4.79 4.79 0 0 1-1.26-3.28 4.55 4.55 0 0 1 1-3.39 3.63 3.63 0 0 1 2.86-1.2 3.84 3.84 0 0 1 2.89 1.18 4.94 4.94 0 0 1 1.26 3.33v.38h-6.46a3.62 3.62 0 0 0 .91 2.19 2.52 2.52 0 0 0 1.85.76 2.08 2.08 0 0 0 1.35-.43 2.62 2.62 0 0 0 .84-1.35Zm-4.93-2.38h4.84a3.1 3.1 0 0 0-.64-1.64 2.36 2.36 0 0 0-1.86-.84 2.24 2.24 0 0 0-1.67.67 2.52 2.52 0 0 0-.65 1.81Zm8.43 5.16-.41-8.65h1.32l.06 1.32a3.37 3.37 0 0 1 .88-1.22 1.5 1.5 0 0 1 .92-.29 2.94 2.94 0 0 1 1.53.48l-.44 1.36a2.11 2.11 0 0 0-1.1-.32 1.32 1.32 0 0 0-.84.29 1.49 1.49 0 0 0-.51.8 5.88 5.88 0 0 0-.17 1.71l.22 4.53h-1.46Zm7.98 0-3.71-8.65h1.56l2.1 5.19c.23.56.45 1.14.65 1.74.11-.46.26-1 .46-1.65l1.67-5.28h1.51l-2.87 8.65Zm5.52-10.26-.08-1.68h1.46l.08 1.68Zm.49 10.26-.41-8.65h1.46l.41 8.65Zm9.14-3.16 1.45.19a3.5 3.5 0 0 1-1.1 2.33 3.39 3.39 0 0 1-2.35.85 3.94 3.94 0 0 1-2.92-1.16 4.94 4.94 0 0 1-1.24-3.34 5.73 5.73 0 0 1 .35-2.45 3 3 0 0 1 1.34-1.58 4.08 4.08 0 0 1 2-.53 3.76 3.76 0 0 1 2.35.72 3.53 3.53 0 0 1 1.25 2l-1.42.22a2.6 2.6 0 0 0-.78-1.31 2 2 0 0 0-1.28-.44 2.18 2.18 0 0 0-1.77.79 3.72 3.72 0 0 0-.57 2.52 4 4 0 0 0 .8 2.53 2.27 2.27 0 0 0 1.78.79 2 2 0 0 0 1.42-.53 2.52 2.52 0 0 0 .65-1.63Zm8.65.38 1.53.19a3.52 3.52 0 0 1-1.23 2.06 3.84 3.84 0 0 1-2.45.73 4.18 4.18 0 0 1-3.07-1.17 4.85 4.85 0 0 1-1.27-3.28 4.63 4.63 0 0 1 1-3.39 3.66 3.66 0 0 1 2.86-1.2 3.86 3.86 0 0 1 2.9 1.18 4.94 4.94 0 0 1 1.26 3.33v.38h-6.46a3.62 3.62 0 0 0 .91 2.19 2.52 2.52 0 0 0 1.85.76 2.08 2.08 0 0 0 1.35-.43 2.62 2.62 0 0 0 .84-1.35Zm-4.93-2.38h4.84a3.1 3.1 0 0 0-.64-1.64 2.36 2.36 0 0 0-1.86-.84 2.24 2.24 0 0 0-1.67.67 2.52 2.52 0 0 0-.67 1.81Zm-55.19 21.86-.06-1.27a3 3 0 0 1-2.68 1.46 3.5 3.5 0 0 1-1.44-.29 2.64 2.64 0 0 1-1-.74 2.92 2.92 0 0 1-.51-1.08 7.89 7.89 0 0 1-.16-1.37l-.25-5.37h1.46l.23 4.8a8.13 8.13 0 0 0 .17 1.55 1.66 1.66 0 0 0 .63.91 1.89 1.89 0 0 0 1.13.33 2.27 2.27 0 0 0 1.22-.34 1.77 1.77 0 0 0 .77-.92 4.28 4.28 0 0 0 .16-1.69l-.22-4.64h1.47l.41 8.66h-1.31Zm3.61 0-.41-8.66h1.32l.06 1.24a3 3 0 0 1 2.68-1.43 3.61 3.61 0 0 1 1.45.28 2.55 2.55 0 0 1 1 .73 3 3 0 0 1 .5 1.09 7.85 7.85 0 0 1 .15 1.42l.26 5.32h-1.47l-.25-5.26a4 4 0 0 0-.24-1.34 1.56 1.56 0 0 0-.64-.71 2 2 0 0 0-1-.26 2.24 2.24 0 0 0-1.59.59 2.79 2.79 0 0 0-.57 2.26l.23 4.72h-1.47Zm14.89-1.07a5.19 5.19 0 0 1-1.52 1 4.43 4.43 0 0 1-1.61.29 3.23 3.23 0 0 1-2.22-.7 2.47 2.47 0 0 1-.86-1.78 2.27 2.27 0 0 1 .24-1.16 2.22 2.22 0 0 1 .72-.85 3.48 3.48 0 0 1 1-.48 11 11 0 0 1 1.29-.23 12.51 12.51 0 0 0 2.59-.5 3.16 3.16 0 0 0 0-.38 1.77 1.77 0 0 0-.47-1.27 2.57 2.57 0 0 0-1.7-.5 2.47 2.47 0 0 0-1.51.37 2.08 2.08 0 0 0-.66 1.28l-1.45-.2a3.5 3.5 0 0 1 .58-1.49 2.58 2.58 0 0 1 1.25-.87 5.68 5.68 0 0 1 1.94-.31 5.4 5.4 0 0 1 1.82.26 2.71 2.71 0 0 1 1 .66 2.49 2.49 0 0 1 .51 1 8.57 8.57 0 0 1 .13 1.35l.1 2a20.72 20.72 0 0 0 .21 2.59 3.39 3.39 0 0 0 .42 1H173a3.22 3.22 0 0 1-.34-1.06Zm-.28-3.28a9.6 9.6 0 0 1-2.36.56 5.47 5.47 0 0 0-1.27.29 1.22 1.22 0 0 0-.73 1.17 1.36 1.36 0 0 0 .49 1 2 2 0 0 0 1.33.38 2.85 2.85 0 0 0 1.48-.37 2.13 2.13 0 0 0 .92-1 3.53 3.53 0 0 0 .17-1.47v-.54Zm6.37 4.35-3.7-8.66h1.55l2.11 5.19c.23.56.44 1.14.64 1.74.11-.46.26-1 .47-1.65l1.67-5.28H183l-2.87 8.66Zm11.55-1.07a5.19 5.19 0 0 1-1.52 1 4.43 4.43 0 0 1-1.61.29 3.23 3.23 0 0 1-2.22-.7 2.44 2.44 0 0 1-.86-1.78 2.27 2.27 0 0 1 .24-1.16 2.13 2.13 0 0 1 .72-.85 3.48 3.48 0 0 1 1-.48 10.57 10.57 0 0 1 1.29-.23 12.65 12.65 0 0 0 2.59-.5 3.16 3.16 0 0 0 0-.38 1.77 1.77 0 0 0-.47-1.27 2.57 2.57 0 0 0-1.7-.5 2.45 2.45 0 0 0-1.51.37 2.08 2.08 0 0 0-.67 1.28l-1.44-.2a3.37 3.37 0 0 1 .57-1.49 2.68 2.68 0 0 1 1.29-.9 5.78 5.78 0 0 1 2-.31 5.3 5.3 0 0 1 1.81.26 2.68 2.68 0 0 1 1.06.66 2.48 2.48 0 0 1 .5 1 7.23 7.23 0 0 1 .14 1.35l.1 2a20.72 20.72 0 0 0 .21 2.59 3.39 3.39 0 0 0 .42 1h-1.54a3.48 3.48 0 0 1-.35-1.06Zm-.28-3.28a9.59 9.59 0 0 1-2.37.56 5.36 5.36 0 0 0-1.26.29 1.21 1.21 0 0 0-.56.48 1.24 1.24 0 0 0-.17.69 1.32 1.32 0 0 0 .49 1 2 2 0 0 0 1.32.38 2.89 2.89 0 0 0 1.49-.37 2.13 2.13 0 0 0 .92-1 3.53 3.53 0 0 0 .17-1.47v-.54Zm3.48-5.91-.08-1.69h1.46l.08 1.69Zm.49 10.26-.41-8.66H195l.42 8.66Zm3.68 0-.57-11.95h1.46l.57 11.95Zm9.33-1.07a5.06 5.06 0 0 1-1.52 1 4.42 4.42 0 0 1-1.6.29 3.26 3.26 0 0 1-2.23-.7 2.51 2.51 0 0 1-.86-1.78 2.27 2.27 0 0 1 .24-1.16 2.31 2.31 0 0 1 .72-.85 3.48 3.48 0 0 1 1-.48 11.37 11.37 0 0 1 1.29-.23 12.51 12.51 0 0 0 2.59-.5v-.38a1.78 1.78 0 0 0-.48-1.27 2.56 2.56 0 0 0-1.69-.5 2.48 2.48 0 0 0-1.52.37 2.08 2.08 0 0 0-.66 1.28l-1.44-.2a3.37 3.37 0 0 1 .57-1.49 2.58 2.58 0 0 1 1.25-.87 5.7 5.7 0 0 1 1.95-.31 5.38 5.38 0 0 1 1.81.26 2.64 2.64 0 0 1 1.05.66 2.49 2.49 0 0 1 .51 1 9.57 9.57 0 0 1 .14 1.35l.09 2a20 20 0 0 0 .22 2.59 3.39 3.39 0 0 0 .42 1h-1.53a3 3 0 0 1-.35-1.06Zm-.27-3.28a9.7 9.7 0 0 1-2.37.56 5.61 5.61 0 0 0-1.27.29 1.18 1.18 0 0 0-.55.48 1.1 1.1 0 0 0-.17.69 1.36 1.36 0 0 0 .49 1 2 2 0 0 0 1.32.38 2.84 2.84 0 0 0 1.49-.37 2.13 2.13 0 0 0 .92-1 3.37 3.37 0 0 0 .17-1.47v-.54Zm5.32 4.35h-1.37l-.56-11.95h1.46l.21 4.26a2.76 2.76 0 0 1 2.32-1.16 3.77 3.77 0 0 1 1.52.32 3.29 3.29 0 0 1 1.22.91 4.56 4.56 0 0 1 .8 1.41 6.18 6.18 0 0 1 .35 1.75 4.79 4.79 0 0 1-.94 3.45 3.26 3.26 0 0 1-2.58 1.21 2.91 2.91 0 0 1-2.47-1.28l.05 1.08Zm-.23-4.39a4.71 4.71 0 0 0 .53 2.25 2.25 2.25 0 0 0 1.93 1.13 2 2 0 0 0 1.62-.84 3.64 3.64 0 0 0 .59-2.49 4.08 4.08 0 0 0-.79-2.5 2.16 2.16 0 0 0-1.66-.81 2 2 0 0 0-1.63.84 3.55 3.55 0 0 0-.58 2.42Zm8.18 4.39-.57-11.95h1.47l.57 11.95Zm9.49-2.79 1.51.22a3.46 3.46 0 0 1-1.23 2.06 3.86 3.86 0 0 1-2.45.74 4.15 4.15 0 0 1-3.07-1.17 4.82 4.82 0 0 1-1.27-3.28 4.59 4.59 0 0 1 1-3.39 3.6 3.6 0 0 1 2.86-1.2 3.81 3.81 0 0 1 2.89 1.18 4.93 4.93 0 0 1 1.26 3.32v.4h-6.46a3.45 3.45 0 0 0 .91 2.18 2.52 2.52 0 0 0 1.85.76 2.15 2.15 0 0 0 1.35-.42 2.65 2.65 0 0 0 .84-1.36Zm-4.94-2.37h4.84a3.07 3.07 0 0 0-.63-1.64 2.39 2.39 0 0 0-1.86-.85 2.25 2.25 0 0 0-1.67.68 2.47 2.47 0 0 0-.68 1.81Z"/><path fill="#388cc8" d="M233.3 209.42h-14.87a.54.54 0 0 1 0-1.07h14.87a.54.54 0 0 1 0 1.07Zm-21.04 0h-66.42a.54.54 0 0 1 0-1.07h66.42a.54.54 0 0 1 0 1.07ZM170.6 130c-.15-3.44-2.11-6.17-4.37-6.09s-4 2.94-3.82 6.39 2.11 6.17 4.38 6.09 3.97-2.92 3.81-6.39Zm47.82-1c-.16-3.45-2.12-6.18-4.38-6.1s-4 2.94-3.82 6.39 2.12 6.17 4.38 6.1 3.97-3 3.82-6.39Zm-35.88 15.15a29 29 0 0 1 22.67 1 1 1 0 0 1 .39 1.38 1 1 0 0 1-1.38.39 27.89 27.89 0 0 0-24.88.8 1 1 0 0 1-1.38-.43 1 1 0 0 1 .43-1.36 34.76 34.76 0 0 1 4.14-1.81Zm-18.78-46.46a2.16 2.16 0 0 1 1 .28 2 2 0 0 1 .73 2.78A20 20 0 0 1 150 110.86a2 2 0 0 1-2.13-1.94 2 2 0 0 1 1.93-2.09 16 16 0 0 0 12.2-8.14 2 2 0 0 1 1.79-1Zm47.85-1.16a2 2 0 0 1 1.84.56 16.34 16.34 0 0 0 13.88 5 2.05 2.05 0 0 1 2.4 1.59 2 2 0 0 1-1.57 2.38 20.47 20.47 0 0 1-17.59-6.13 2 2 0 0 1 0-2.86 2 2 0 0 1 1-.54Z"/><path fill="#091639" d="m255.7 118.69-5.79.54a4.11 4.11 0 0 1-4.41-3.23l-8-35.93a4.14 4.14 0 0 1 3-4.9l15.5-4.05-.27 47.57Zm-89.26-29.43c-4-11-8.06-28.61-3.8-44.9L121.4 85.58c11.65 3.9 30.23 5.6 45 3.69Z" opacity=".2" style="isolation:isolate"/><path fill="#fff" d="M162.63 85.58c-4.52-13.35-2.68-31.5 0-41.23l-41.24 41.23c12.48 2.27 26.43 1.91 41.24 0Z"/><path fill="#091639" d="M140.25 87.86a105.53 105.53 0 0 1-19-1.59.69.69 0 0 1-.55-.48.72.72 0 0 1 .18-.71l41.24-41.23a.7.7 0 0 1 .85-.11.71.71 0 0 1 .33.8c-2.5 9.06-4.56 27.4 0 40.81a.71.71 0 0 1-.07.6.68.68 0 0 1-.51.32 174.38 174.38 0 0 1-22.47 1.58Zm-17.39-2.74c11 1.81 23.68 1.77 38.83-.13-3.73-11.82-2.88-27.47-.37-38.32l-38.46 38.45Zm181.45 60.68a1.17 1.17 0 0 1-1.14-.89l-14.53-55.32a1.19 1.19 0 0 1 .85-1.44 1.17 1.17 0 0 1 1.44.85l14.53 55.32a1.18 1.18 0 0 1-.85 1.44 1 1 0 0 1-.3.04Z"/><path fill="#388cc8" d="m330.87 64.79-.76.2 1.1 4.22.79-.21Zm-2-4.51-3.05-11.62a6.14 6.14 0 0 0-5.93-4.58 6.24 6.24 0 0 0-1.56.2l-8 2.09-.2-.77 8-2.09a6.91 6.91 0 0 1 8.45 4.93l3.05 11.63-.77.2Z"/><path fill="#388cc8" d="M318.84 46.22 243.33 66a4.14 4.14 0 0 0-3 5.06l9.55 36.42a4.16 4.16 0 0 0 5.07 3l75.55-19.82a4.14 4.14 0 0 0 3-5.06l-9.55-36.42a4.16 4.16 0 0 0-5.11-2.96Z"/><path fill="#388cc8" d="m315.07 88.64-47.64 12.5a4.14 4.14 0 0 0-3 5.06l3 11.38a4.14 4.14 0 0 0 5.06 3l47.65-12.49a4.16 4.16 0 0 0 3-5.07l-3-11.38a4.16 4.16 0 0 0-5.07-3Z"/><path fill="#fff" d="m271.88 105.29 6.51-1.69.44 1.67-4.08 1.06.33 1.26 3.78-1 .42 1.61-3.78 1 .4 1.56 4.2-1.1.47 1.78-6.64 1.73-2-7.87Zm10.02 5.79-2-7.87 4.05-1.06a6.48 6.48 0 0 1 1.78-.25 1.92 1.92 0 0 1 1.15.47 2.24 2.24 0 0 1 .69 1.18 2.33 2.33 0 0 1 0 1.2 2.14 2.14 0 0 1-.57 1 3 3 0 0 1-.78.54 2.49 2.49 0 0 1 .71.12 3.28 3.28 0 0 1 .5.31 2.55 2.55 0 0 1 .46.41l1.77 2-2.75.71-1.91-2.13a2 2 0 0 0-.6-.49 1 1 0 0 0-.65 0h-.21l.83 3.19-2.44.64Zm1.23-5.32 1-.26a4.66 4.66 0 0 0 .62-.28.7.7 0 0 0 .33-.35.71.71 0 0 0 0-.5.74.74 0 0 0-.39-.52 1.5 1.5 0 0 0-1 0l-1.07.28.42 1.6Zm7.32 3.1-2-7.86 4-1a6.18 6.18 0 0 1 1.77-.26 1.9 1.9 0 0 1 1.15.47 2.19 2.19 0 0 1 .7 1.18 2.15 2.15 0 0 1-.55 2.17 3.28 3.28 0 0 1-.78.53 2.06 2.06 0 0 1 .7.13 2.64 2.64 0 0 1 .5.3 3.2 3.2 0 0 1 .47.41l1.77 2-2.75.71-1.92-2.06a1.92 1.92 0 0 0-.61-.5 1.16 1.16 0 0 0-.64 0l-.21.06.83 3.19-2.44.63Zm1.23-5.31 1-.27a4 4 0 0 0 .62-.28.67.67 0 0 0 .33-.35.71.71 0 0 0 0-.5.75.75 0 0 0-.4-.52 1.57 1.57 0 0 0-1 0l-1.06.28.41 1.6Zm5.78-.71a3.85 3.85 0 0 1 3-5.13 4.24 4.24 0 0 1 3.3.27 4 4 0 0 1 1.83 2.68 5.08 5.08 0 0 1 .13 2.38 3.5 3.5 0 0 1-1 1.73 4.62 4.62 0 0 1-2.06 1.06 5.22 5.22 0 0 1-2.31.15 3.34 3.34 0 0 1-1.77-1 4.55 4.55 0 0 1-1.14-2.15Zm2.43-.61a2.68 2.68 0 0 0 .89 1.59 1.72 1.72 0 0 0 2.41-.61 3 3 0 0 0 0-1.94 2.49 2.49 0 0 0-.88-1.51 1.55 1.55 0 0 0-1.34-.19 1.51 1.51 0 0 0-1.05.83 2.8 2.8 0 0 0 0 1.83Zm8.11 2.07-2.05-7.87 4.05-1.05a6.13 6.13 0 0 1 1.77-.26 2 2 0 0 1 1.15.47 2.37 2.37 0 0 1 .7 1.18 2.21 2.21 0 0 1-.56 2.18 3 3 0 0 1-.77.53 2.12 2.12 0 0 1 .7.13 2.42 2.42 0 0 1 .5.3 3.14 3.14 0 0 1 .47.41l1.76 2-2.72.68-2-2.07a2 2 0 0 0-.59-.49 1.07 1.07 0 0 0-.64 0l-.22.06.83 3.19-2.44.63Zm1.2-5.3 1-.27a3.62 3.62 0 0 0 .61-.28.72.72 0 0 0 .34-.35.83.83 0 0 0-.37-1 1.58 1.58 0 0 0-1 0l-1.06.28.41 1.6Zm-55.86-25.15 16.39-4.3 1.45 5.51-11.1 2.94.38 3.88a13.09 13.09 0 0 1 2.07-1.41 9.79 9.79 0 0 1 2.16-.85 8.66 8.66 0 0 1 6.65.66 7.86 7.86 0 0 1 3.81 5.07 9.84 9.84 0 0 1 0 4.94 8.41 8.41 0 0 1-2.5 4.28 12.36 12.36 0 0 1-5.31 2.64 17.31 17.31 0 0 1-4.34.64 8.66 8.66 0 0 1-3.35-.61 8.44 8.44 0 0 1-2.54-1.57 11 11 0 0 1-2-2.58l6.78-2.59a4.42 4.42 0 0 0 1.86 2.24 3.24 3.24 0 0 0 2.44.29 3.11 3.11 0 0 0 2.1-1.72 4.94 4.94 0 0 0 .09-3.5 4.85 4.85 0 0 0-1.81-3 3.35 3.35 0 0 0-2.79-.38 4.33 4.33 0 0 0-1.81 1 5.61 5.61 0 0 0-1.18 1.69l-6.11.7-1.32-13.93Zm23.59 6.98q-1.86-7.08-.05-10.58c1.2-2.34 3.55-4 7-4.87a12 12 0 0 1 4.29-.46 8.1 8.1 0 0 1 3.05.92 8.7 8.7 0 0 1 2.14 1.66 11 11 0 0 1 1.64 2.31 24.67 24.67 0 0 1 2.22 5.61q1.77 6.75.31 10.5t-7.06 5.2a11.51 11.51 0 0 1-5.33.33 8.43 8.43 0 0 1-3.93-2.1 11.32 11.32 0 0 1-2.39-3.35 25.79 25.79 0 0 1-1.88-5.13Zm6.85-1.78c.83 3.17 1.68 5.25 2.54 6.27a2.74 2.74 0 0 0 2.89 1.1 2.64 2.64 0 0 0 1.63-1.22 4.62 4.62 0 0 0 .53-2.62 25 25 0 0 0-.95-5.06q-1.29-5-2.58-6.43a2.78 2.78 0 0 0-3-1 2.67 2.67 0 0 0-2 2.39q-.32 1.93.93 6.63Zm21.65-11.18-6.83.54a8.46 8.46 0 0 1 1.88-5.6 11.55 11.55 0 0 1 6.11-3.38c3.25-.84 5.75-.86 7.51 0a5.89 5.89 0 0 1 3.36 4 5.21 5.21 0 0 1-.11 3.15 7.84 7.84 0 0 1-2.06 3 8 8 0 0 1 2.42.25 5.75 5.75 0 0 1 2.46 1.51 6.3 6.3 0 0 1 1.46 2.79 8.55 8.55 0 0 1-.05 4.46 7.86 7.86 0 0 1-2.46 3.93 12.93 12.93 0 0 1-5.33 2.48 15.31 15.31 0 0 1-5.56.61 8.27 8.27 0 0 1-3.83-1.49 11.36 11.36 0 0 1-3-3.35l6.66-2.72a5.56 5.56 0 0 0 2 2.55 3.13 3.13 0 0 0 2.4.23 3.09 3.09 0 0 0 2-1.62 4 4 0 0 0 .21-3 3.88 3.88 0 0 0-1.59-2.45 3.23 3.23 0 0 0-2.66-.32 9.52 9.52 0 0 0-2.13 1l-.94-5a5.68 5.68 0 0 0 .91-.15 3.26 3.26 0 0 0 2-1.45 2.84 2.84 0 0 0 .37-2.29 2.52 2.52 0 0 0-1.15-1.64 2.63 2.63 0 0 0-2.05-.19 2.81 2.81 0 0 0-1.65 1.28 4.56 4.56 0 0 0-.35 2.86Z"/></svg>