<svg xmlns="http://www.w3.org/2000/svg" xmlns:xlink="http://www.w3.org/1999/xlink" style="display:none"><defs><clipPath id="a"><path fill="#fff" d="M0 0h24v24H0z"/></clipPath><linearGradient id="b" x1="11.99" x2="11.99" y1="-.75" y2="25.25" gradientUnits="userSpaceOnUse"><stop stop-color="#FCA759"/><stop offset=".19" stop-color="#E82D56"/><stop offset=".74" stop-color="#A22DB4"/><stop offset="1" stop-color="#643DCE"/></linearGradient><linearGradient id="c" x1="11.99" x2="11.99" y1="-.75" y2="25.25" gradientUnits="userSpaceOnUse"><stop stop-color="#FCA759"/><stop offset=".19" stop-color="#E82D56"/><stop offset=".74" stop-color="#A22DB4"/><stop offset="1" stop-color="#643DCE"/></linearGradient><linearGradient id="d" x1="11.99" x2="11.99" y1="-.75" y2="25.25" gradientUnits="userSpaceOnUse"><stop stop-color="#FCA759"/><stop offset=".19" stop-color="#E82D56"/><stop offset=".74" stop-color="#A22DB4"/><stop offset="1" stop-color="#643DCE"/></linearGradient><clipPath id="a"><path fill="#fff" d="M0 0h24v24H0z"/></clipPath><clipPath id="a"><path fill="#fff" d="M0 0h24v24H0z"/></clipPath><clipPath id="a"><path fill="#fff" d="M0 0h24v24H0z"/></clipPath></defs><symbol id="alert-triangle"><g fill="none"><path d="M12 12.97V8.13m0 8.43v.04m6.05 4.03H5.95A3.63 3.63 0 012.47 18c-.2-.64.04-1.31.4-1.88L8.9 5.1a3.63 3.63 0 016.18 0l6.05 11.03c.35.57.58 1.24.4 1.88a3.63 3.63 0 01-3.5 2.62z"/></g></symbol><symbol id="arrow-right-sm"><g fill="none"><path d="M12.83 7.63L17 12m0 0l-4.17 4.38M17 12H7"/></g></symbol><symbol id="box"><g fill="none"><path d="M21.53 7.2H2.47M15 10.5H9m12.6-2.73V19.2a2.4 2.4 0 01-2.4 2.4H4.8a2.4 2.4 0 01-2.4-2.4V7.77c0-.38.09-.74.25-1.08L4.3 3.4c.3-.6.93-.99 1.61-.99H18.1c.68 0 1.3.39 1.6 1l1.66 3.3c.16.33.25.7.25 1.07z"/></g></symbol><symbol id="calendar" viewBox="0 0 24 24"><g fill="none"><path d="M7.25 17.55v-.08m5.06.08v-.08m0-4.5v-.09m4.5.09v-.09M3.88 8.47h15.75M5.9 2v1.69M17.37 2v1.69m0 0H6.13a3.38 3.38 0 00-3.37 3.37v11.25a3.37 3.37 0 003.38 3.38h11.25a3.37 3.37 0 003.37-3.38V7.06a3.37 3.37 0 00-3.38-3.37z"/></g></symbol><symbol id="check"><g fill="none"><path d="M1 5l4 4 8-8"/></g></symbol><symbol id="chevron-down"><g fill="none"><path d="M16.8 9.6L12 14.4 7.2 9.6"/></g></symbol><symbol id="chevron-left"><g fill="none"><path d="M14.4 16.8L9.6 12l4.8-4.8"/></g></symbol><symbol id="chevron-right"><g fill="none"><path d="M9.6 7.2l4.8 4.8-4.8 4.8"/></g></symbol><symbol id="close"><g fill="none"><path d="M19 5L5 19m14 0L5 5"/></g></symbol><symbol id="down-arrow"><g fill="none"><path d="M18.172 13.2L12 19.2m0 0l-6.171-6m6.171 6V4.8" stroke="#000" stroke-width="2" stroke-linecap="round" stroke-linejoin="round"/></g></symbol><symbol id="download"><g fill="none"><path d="M3.6 15.22v3.7a2.13 2.13 0 002.1 2.12h12.6a2.13 2.13 0 002.1-2.12v-3.7M12 2.96v12m0 0l4.8-4.59M12 14.96l-4.8-4.59"/></g></symbol><symbol id="email"><g fill="none"><path d="M4.2 6.6l7.12 4.93c.4.28.95.28 1.36 0L19.8 6.6m-15 12.6h14.4a2.4 2.4 0 002.4-2.4V7.2a2.4 2.4 0 00-2.4-2.4H4.8a2.4 2.4 0 00-2.4 2.4v9.6a2.4 2.4 0 002.4 2.4z"/></g></symbol><symbol id="facebook"><g fill="none"><g clip-path="url(#a)"><path fill="#1877F2" d="M24 12a12 12 0 10-13.88 11.85v-8.38H7.08V12h3.04V9.36c0-3.01 1.8-4.67 4.54-4.67 1.31 0 2.68.23 2.68.23v2.96h-1.5c-1.5 0-1.96.92-1.96 1.87V12h3.32l-.53 3.47h-2.8v8.38A12 12 0 0024 12z"/><path fill="#fff" d="M16.67 15.47L17.2 12h-3.32V9.75c0-.95.46-1.88 1.95-1.88h1.51V4.92s-1.37-.23-2.68-.23c-2.74 0-4.54 1.66-4.54 4.67V12H7.08v3.47h3.04v8.38c1.25.2 2.51.2 3.76 0v-8.38h2.8z"/></g></g></symbol><symbol id="file" viewBox="0 0 24 24"><g fill="none"><path d="M15 2.4V6c0 .66.54 1.2 1.2 1.2h3.6m-11.4 0h2.4m-2.4 3.6h7.2m-7.2 3.6h7.2M18 4.2a26.53 26.53 0 01-1.44-1.41 1.23 1.23 0 00-.89-.39H6.6a2.4 2.4 0 00-2.4 2.4v14.4a2.4 2.4 0 002.4 2.4h10.8a2.4 2.4 0 002.4-2.4V6.48c0-.3-.12-.6-.33-.82A34.3 34.3 0 0018 4.2z"/></g></symbol><symbol id="filter"><g fill="none"><path d="M6.6 12h10.8M4.2 7.2h15.6m-9.6 9.6h3.6"/></g></symbol><symbol id="globe"><path d="M3.6 8.85a.75.75 0 000 1.5v-1.5zm16.8 1.5a.75.75 0 000-1.5v1.5zm-16.7 3.9a.75.75 0 000 1.5v-1.5zm16.8 1.5a.75.75 0 000-1.5v1.5zm.35-3.75A8.85 8.85 0 0112 20.85v1.5c5.72 0 10.35-4.63 10.35-10.35h-1.5zM12 20.85A8.85 8.85 0 013.15 12h-1.5c0 5.72 4.63 10.35 10.35 10.35v-1.5zM3.15 12A8.85 8.85 0 0112 3.15v-1.5A10.35 10.35 0 001.65 12h1.5zM12 3.15A8.85 8.85 0 0120.85 12h1.5c0-5.72-4.63-10.35-10.35-10.35v1.5zm0 17.7c-.33 0-.7-.15-1.11-.54-.41-.4-.82-1.01-1.17-1.82A16.73 16.73 0 018.55 12h-1.5c0 2.73.48 5.24 1.3 7.09.4.92.9 1.72 1.5 2.3.6.57 1.32.96 2.15.96v-1.5zM8.55 12c0-2.57.46-4.87 1.17-6.49.35-.81.76-1.42 1.17-1.82.4-.39.78-.54 1.11-.54v-1.5a3.1 3.1 0 00-2.16.97 7.2 7.2 0 00-1.5 2.3A18.2 18.2 0 007.05 12h1.5zM12 22.35a3.1 3.1 0 002.16-.97 7.2 7.2 0 001.5-2.3c.8-1.84 1.29-4.35 1.29-7.08h-1.5c0 2.57-.46 4.87-1.17 6.49a5.73 5.73 0 01-1.17 1.82c-.4.39-.78.54-1.11.54v1.5zM16.95 12c0-2.73-.48-5.24-1.3-7.09a7.2 7.2 0 00-1.5-2.3A3.1 3.1 0 0012 1.66v1.5c.33 0 .7.15 1.11.54.41.4.82 1.01 1.17 1.82A16.73 16.73 0 0115.45 12h1.5zM3.6 10.35h16.8v-1.5H3.6v1.5zm.1 5.4h16.8v-1.5H3.7v1.5z"/></symbol><symbol id="grid"><g fill="none"><path d="M19.47 2.4c1.17 0 2.13.94 2.13 2.1v3.6c0 1.16-.96 2.1-2.13 2.1h-3.2a2.12 2.12 0 01-2.14-2.1V4.5c0-1.16.96-2.1 2.14-2.1h3.2zm-14.94 0c-1.17 0-2.13.94-2.13 2.1v3.6c0 1.16.96 2.1 2.13 2.1h3.2c1.18 0 2.14-.94 2.14-2.1V4.5c0-1.16-.96-2.1-2.14-2.1h-3.2zm14.94 11.4c1.17 0 2.13.94 2.13 2.1v3.6c0 1.16-.96 2.1-2.13 2.1h-3.2a2.12 2.12 0 01-2.14-2.1v-3.6c0-1.16.96-2.1 2.14-2.1h3.2zm-14.94 0c-1.17 0-2.13.94-2.13 2.1v3.6c0 1.16.96 2.1 2.13 2.1h3.2c1.18 0 2.14-.94 2.14-2.1v-3.6c0-1.16-.96-2.1-2.14-2.1h-3.2z"/></g></symbol><symbol id="home"><g fill="none"><path d="M2.4 9.24c0-.39.2-.76.54-.99l8.32-5.62c.44-.3 1.04-.3 1.48 0l8.32 5.62c.34.23.54.6.54 1v10.52c0 1.01-.86 1.83-1.92 1.83H4.32a1.87 1.87 0 01-1.92-1.83V9.24z"/></g></symbol><symbol id="image" viewBox="0 0 24 24"><path d="M3.07 19.27a.75.75 0 001.06 1.06l-1.06-1.06zM8.4 15l.53-.53a.75.75 0 00-1.06 0l.53.53zm2.4 2.4l-.53.53c.3.3.77.3 1.06 0l-.53-.53zm5.4-5.4l.53-.53a.75.75 0 00-1.06 0l.53.53zm4.27 5.33a.75.75 0 001.06-1.06l-1.06 1.06zm-16.34 3l4.8-4.8-1.06-1.06-4.8 4.8 1.06 1.06zm3.74-4.8l2.4 2.4 1.06-1.06-2.4-2.4-1.06 1.06zm3.46 2.4l5.4-5.4-1.06-1.06-5.4 5.4 1.06 1.06zm4.34-5.4l4.8 4.8 1.06-1.06-4.8-4.8-1.06 1.06zM6 3.15h12v-1.5H6v1.5zM20.85 6v12h1.5V6h-1.5zM18 20.85H6v1.5h12v-1.5zM3.15 18V6h-1.5v12h1.5zM6 20.85A2.85 2.85 0 013.15 18h-1.5c0 2.4 1.95 4.35 4.35 4.35v-1.5zM20.85 18A2.85 2.85 0 0118 20.85v1.5c2.4 0 4.35-1.95 4.35-4.35h-1.5zM18 3.15A2.85 2.85 0 0120.85 6h1.5c0-2.4-1.95-4.35-4.35-4.35v1.5zM6 1.65A4.35 4.35 0 001.65 6h1.5A2.85 2.85 0 016 3.15v-1.5zM8.85 7.8c0 .58-.47 1.05-1.05 1.05v1.5c1.4 0 2.55-1.14 2.55-2.55h-1.5zM7.8 8.85c-.58 0-1.05-.47-1.05-1.05h-1.5c0 1.4 1.14 2.55 2.55 2.55v-1.5zM6.75 7.8c0-.58.47-1.05 1.05-1.05v-1.5A2.55 2.55 0 005.25 7.8h1.5zM7.8 6.75c.58 0 1.05.47 1.05 1.05h1.5c0-1.4-1.14-2.55-2.55-2.55v1.5z"/></symbol><symbol id="instagram"><g fill="none"><g clip-path="url(#a)"><path fill="url(#b)" d="M12 2.16c3.2 0 3.59.01 4.85.07 1.17.05 1.8.25 2.22.41.56.22.96.48 1.38.9.42.42.68.82.9 1.38.16.42.36 1.06.4 2.22.07 1.27.08 1.65.08 4.85 0 3.2-.01 3.59-.07 4.85a6.58 6.58 0 01-.41 2.22c-.22.56-.48.96-.9 1.38-.42.42-.82.68-1.38.9a6.6 6.6 0 01-2.22.41c-1.27.06-1.65.07-4.85.07-3.2 0-3.59-.01-4.85-.07a6.58 6.58 0 01-2.22-.41 3.71 3.71 0 01-1.38-.9 3.7 3.7 0 01-.9-1.38 6.6 6.6 0 01-.4-2.22 84.57 84.57 0 01-.08-4.85c0-3.2.01-3.59.07-4.85.05-1.17.25-1.8.41-2.22.22-.56.48-.96.9-1.38a3.7 3.7 0 011.38-.9 6.6 6.6 0 012.22-.4c1.26-.07 1.64-.08 4.85-.08zM12 0C8.74 0 8.33.01 7.05.07a8.77 8.77 0 00-2.9.56c-.8.3-1.47.72-2.13 1.39a5.88 5.88 0 00-1.4 2.12 8.8 8.8 0 00-.55 2.91A88.3 88.3 0 000 12c0 3.26.01 3.67.07 4.95.06 1.27.26 2.15.56 2.9.3.8.72 1.47 1.39 2.13a5.87 5.87 0 002.12 1.39c.76.3 1.64.5 2.91.55 1.28.06 1.69.08 4.95.08 3.25 0 3.66-.02 4.94-.07a8.77 8.77 0 002.91-.56c.79-.3 1.46-.72 2.13-1.39a5.87 5.87 0 001.38-2.12c.3-.76.5-1.63.56-2.91.05-1.28.07-1.69.07-4.95 0-3.25-.02-3.66-.07-4.94a8.77 8.77 0 00-.56-2.91c-.3-.8-.7-1.47-1.38-2.13A5.87 5.87 0 0019.86.63a8.8 8.8 0 00-2.91-.56C15.67.01 15.25 0 12 0z"/><path fill="url(#c)" d="M12 5.84a6.17 6.17 0 100 12.33 6.17 6.17 0 000-12.33zM12 16a4 4 0 110-8 4 4 0 010 8z"/><path fill="url(#d)" d="M19.85 5.6a1.44 1.44 0 11-2.88 0 1.44 1.44 0 012.88 0z"/></g></g></symbol><symbol id="link-broken"><g fill="none"><path d="M7.47 10.28l-2.23 2.24a4.43 4.43 0 00.04 6.34 4.45 4.45 0 006.35.07l2.23-2.23m2.85-2.8l2.24-2.23a4.43 4.43 0 00-.05-6.34 4.54 4.54 0 00-6.34-.05L10.32 7.5m-1.61 7.91l6.7-6.7M5.34 5.22l-1.11-1.1m4.95-.85l.18-1.83M1.72 9.08l1.9-.19m15.32 9.62l1.1 1.1m-4.94.84l-.18 1.83m7.64-7.64l-1.9.19"/></g></symbol><symbol id="linkedin"><g fill="none"><g clip-path="url(#a)"><path fill="#0A66C2" d="M22.23 0H1.77A1.77 1.77 0 000 1.77v20.46A1.77 1.77 0 001.77 24h20.46A1.77 1.77 0 0024 22.23V1.77A1.77 1.77 0 0022.23 0zM7.15 20.45h-3.6V8.97h3.6v11.46zM5.35 7.4a2.07 2.07 0 111.93-1.28A2.04 2.04 0 015.35 7.4zm15.1 13.05h-3.6V14.2c0-1.84-.79-2.41-1.8-2.41-1.07 0-2.12.8-2.12 2.46v6.21H9.32V9h3.47v1.59h.05a3.94 3.94 0 013.43-1.91c2.01 0 4.18 1.2 4.18 4.7v7.08z"/></g></g></symbol><symbol id="list"><g fill="none"><path d="M8.72 6H21.6M8.72 12.48H21.6M8.72 18.96H21.6M3.6 6v.01m0 6.47v.01m0 6.47v.01"/></g></symbol><symbol id="lock"><g fill="none"><path d="M6.6 8.8v-.91C6.6 4.85 9 2.4 12 2.4c3 0 5.4 2.45 5.4 5.49v.91m-10.8 0c-.99 0-1.8.82-1.8 1.83v9.14c0 1 .81 1.83 1.8 1.83h10.8c.99 0 1.8-.82 1.8-1.83v-9.14c0-1-.81-1.83-1.8-1.83m-10.8 0h10.8M12 13.37c.99 0 1.8.82 1.8 1.83 0 1-.81 1.83-1.8 1.83s-1.8-.82-1.8-1.83c0-1 .81-1.83 1.8-1.83z"/></g></symbol><symbol id="marker"><g fill="none"><path d="M12 21.6s7.51-6.68 7.51-11.69a7.51 7.51 0 10-15.02 0C4.49 14.92 12 21.6 12 21.6z"/><path d="M14.4 9.6a2.4 2.4 0 11-4.8 0 2.4 2.4 0 014.8 0z"/></g></symbol><symbol id="media-strip"><g fill="none"><path d="M7.2 21V3m9.6 18V3M2.4 12h19.2M2.4 7.2h4.8m9.6 0h4.8M2.4 16.8h4.8m9.6 0h4.8M2.4 18V6A3.6 3.6 0 016 2.4h12A3.6 3.6 0 0121.6 6v12a3.6 3.6 0 01-3.6 3.6H6A3.6 3.6 0 012.4 18z"/></g></symbol><symbol id="menu"><g fill="none"><path d="M21.6 19.2H2.4M21.6 12H2.4m19.2-7.2H2.4"/></g></symbol><symbol id="microphone"><g fill="none"><path d="M4.4 11.18a7.68 7.68 0 007.6 6.57m0 0a7.68 7.68 0 007.6-6.57M12 17.75v3.85m0-19.2a3.3 3.3 0 00-3.29 3.3v4.38a3.3 3.3 0 106.58 0V5.69A3.3 3.3 0 0012 2.4z"/></g></symbol><symbol id="search"><g fill="none"><path d="M16.93 17.04l3.47 3.36m-1.12-8.96a7.84 7.84 0 11-15.68 0 7.84 7.84 0 0115.68 0z"/></g></symbol><symbol id="twitter"><g fill="none"><path fill="#1DA1F2" d="M7.55 21.75c9.05 0 14-7.5 14-14.01V7.1c.96-.7 1.79-1.56 2.45-2.54-.9.4-1.85.65-2.83.77a4.94 4.94 0 002.17-2.72c-.97.57-2.03.97-3.13 1.2a4.93 4.93 0 00-8.4 4.48A13.98 13.98 0 011.68 3.15 4.93 4.93 0 003.2 9.72 4.88 4.88 0 01.96 9.1v.07a4.93 4.93 0 003.95 4.82c-.72.2-1.49.23-2.22.09a4.93 4.93 0 004.6 3.42A9.88 9.88 0 010 19.54a13.94 13.94 0 007.55 2.2"/></g></symbol><symbol id="user-profile"><g fill="none"><path d="M3.24 19.5c1.32-2.21 4.23-3.72 8.76-3.72 4.53 0 7.44 1.5 8.76 3.72M15.6 8.1a3.6 3.6 0 11-7.2 0 3.6 3.6 0 017.2 0z"/></g></symbol><symbol id="youtube"><g fill="none"><g clip-path="url(#a)"><path fill="#FF0302" d="M23.52 6.19a3.02 3.02 0 00-2.12-2.14c-1.88-.5-9.38-.5-9.38-.5s-7.5 0-9.37.5A3.02 3.02 0 00.53 6.19C.03 8.07.03 12 .03 12s0 3.93.5 5.81a3.02 3.02 0 002.12 2.14c1.87.5 9.37.5 9.37.5s7.5 0 9.38-.5a3.02 3.02 0 002.12-2.14c.5-1.88.5-5.81.5-5.81s0-3.93-.5-5.81z"/><path fill="#FEFEFE" d="M9.57 15.57V8.43L15.84 12l-6.27 3.57z"/></g></g></symbol></svg>