<svg xmlns="http://www.w3.org/2000/svg" viewBox="0 0 399 371"><path fill="#ebebeb" d="M188.73 370H6.09a5.41 5.41 0 0 1-5.4-5.42V5.42A5.41 5.41 0 0 1 6.09 0h182.64a5.41 5.41 0 0 1 5.39 5.42v359.17a5.41 5.41 0 0 1-5.39 5.42ZM6.09.24A5.18 5.18 0 0 0 .93 5.42v359.17a5.18 5.18 0 0 0 5.16 5.18h182.64a5.18 5.18 0 0 0 5.16-5.18V5.42a5.18 5.18 0 0 0-5.16-5.18ZM393.29 370H210.66a5.41 5.41 0 0 1-5.4-5.42V5.42a5.41 5.41 0 0 1 5.4-5.42h182.63a5.41 5.41 0 0 1 5.4 5.42v359.17a5.41 5.41 0 0 1-5.4 5.42ZM210.66.24a5.18 5.18 0 0 0-5.17 5.18v359.17a5.18 5.18 0 0 0 5.17 5.18h182.63a5.17 5.17 0 0 0 5.16-5.18V5.42a5.17 5.17 0 0 0-5.16-5.18Z"/><path fill="#ebebeb" d="m70.17 107.46 1.53 3.11 3.42.5-2.47 2.42.57 3.41-3-1.61-3.06 1.61.58-3.41-2.47-2.42 3.42-.5Z"/><path fill="#f5f5f5" d="m376.27 253.75 1.54 3.11 3.41.5-2.47 2.41.58 3.42-3.06-1.61-3 1.61.58-3.42-2.47-2.41 3.41-.5Zm-60.63 90.18 1.53 3.12 3.43.49-2.48 2.46.58 3.41-3.06-1.61-3.06 1.61.59-3.41-2.48-2.43 3.43-.49Z"/><path fill="#ebebeb" d="m176.94 52.36.57 1.15 1.26.18a.39.39 0 0 1 .22.67l-.92.9.22 1.27a.39.39 0 0 1-.56.41l-1.13-.6-1.14.6a.38.38 0 0 1-.55-.41l.21-1.27-.91-.9a.39.39 0 0 1 .21-.67l1.27-.18.57-1.15a.38.38 0 0 1 .69 0Z"/><path fill="#f5f5f5" d="m20.72 329.18.57 1.15 1.27.18a.39.39 0 0 1 .21.67l-.91.9.22 1.27a.39.39 0 0 1-.56.41l-1.14-.6-1.13.6a.39.39 0 0 1-.56-.41l.22-1.27-.92-.9a.39.39 0 0 1 .22-.67l1.26-.18.57-1.15a.38.38 0 0 1 .69 0Z"/><path fill="#ebebeb" d="m46.24 40.17.57 1.16 1.27.18a.39.39 0 0 1 .21.66l-.91.9.21 1.27a.38.38 0 0 1-.56.41l-1.13-.6-1.14.6a.38.38 0 0 1-.55-.41l.21-1.27-.91-.9a.38.38 0 0 1 .21-.66l1.28-.18.57-1.16a.38.38 0 0 1 .69 0Zm-1.53 228.61a1.26 1.26 0 1 1-2.52 0 1.26 1.26 0 1 1 2.52 0ZM224 110.92a1.26 1.26 0 1 1-1.26-1.26 1.26 1.26 0 0 1 1.26 1.26Z"/><path fill="#f5f5f5" d="M158.74 41.21a1.26 1.26 0 1 1-1.26-1.21 1.26 1.26 0 0 1 1.26 1.21Z"/><path fill="#f0f0f0" d="M160.74 348.66a7 7 0 1 0-8.36-5.19 7 7 0 0 0 8.36 5.19Z"/><path fill="#e6e6e6" d="M156.75 337.8a6.68 6.68 0 0 0-4 1.29 7 7 0 0 0 6.38 9.74 6.84 6.84 0 0 0 3.55-1 6.66 6.66 0 0 0 .82-3.24 6.79 6.79 0 0 0-6.78-6.79Z"/><path fill="#388cc8" d="M102.92 220.71H45.36v-26.06L102.91 126h27.55v70.09h14.27v24.59h-14.27V242h-27.55v-21.28Zm0-24.59v-35.89l-30.41 35.89Zm51.66-11.58q0-32.5 11.67-45.51t35.56-13q11.49 0 18.85 2.83a35 35 0 0 1 12 7.39 39.11 39.11 0 0 1 7.33 9.57 50 50 0 0 1 4.31 11.71 109.54 109.54 0 0 1 3.18 26.6q0 31.05-10.47 45.43T201 244q-14.35 0-23.19-4.59a37.62 37.62 0 0 1-14.51-13.46q-4.11-6.3-6.4-17.23a118.46 118.46 0 0 1-2.29-24.16Zm31.34.08q0 21.78 3.84 29.75t11.13 8a11.66 11.66 0 0 0 8.34-3.39q3.53-3.39 5.2-10.7t1.67-22.79q0-22.71-3.84-30.53t-11.52-7.82c-5.12 0-9 2.66-11.33 8s-3.48 15.16-3.48 29.52Zm128.92 36.09h-57.55v-26.06L314.84 126h27.54v70.09h14.27v24.59h-14.27V242h-27.54v-21.28Zm0-24.59v-35.89l-30.42 35.89Z"/><path fill="#388cc8" d="M153.3 86a1.77 1.77 0 1 1-1.76-1.77A1.76 1.76 0 0 1 153.3 86ZM32.25 154.13a1.25 1.25 0 1 0-1.25-1.25 1.25 1.25 0 0 0 1.25 1.25ZM238.52 337a1.79 1.79 0 1 0-1.79-1.79 1.79 1.79 0 0 0 1.79 1.79Zm42.98-73a1.25 1.25 0 1 0-1.25-1.25 1.25 1.25 0 0 0 1.25 1.25Zm82.92-225.42a1.25 1.25 0 1 1-1.24-1.26 1.24 1.24 0 0 1 1.24 1.26ZM126.63 13.29a1.25 1.25 0 1 1-1.24-1.29 1.24 1.24 0 0 1 1.24 1.29ZM225.88 79a1.25 1.25 0 1 0-1.24-1.25 1.25 1.25 0 0 0 1.24 1.25Z" opacity=".3"/><path fill="#388cc8" d="M96.82 79A20.78 20.78 0 1 0 76.1 58.25 20.75 20.75 0 0 0 96.82 79Z"/><path fill="#fff" d="M96.82 79A20.78 20.78 0 1 0 76.1 58.25 20.75 20.75 0 0 0 96.82 79Z" opacity=".7" style="isolation:isolate"/><path fill="#388cc8" d="M89.68 42.57a20.62 20.62 0 0 0-8.17 1.68A20.75 20.75 0 0 0 105 77.33a20.81 20.81 0 0 0-15.33-34.76Z" opacity=".2" style="isolation:isolate"/><path fill="#388cc8" d="M87.62 48.06a1.89 1.89 0 1 1-1.89-1.9 1.9 1.9 0 0 1 1.89 1.9Zm22.28-1.9a1.89 1.89 0 1 1-1.9-1.89 1.89 1.89 0 0 1 1.9 1.89Zm-3.79 13.55A3.1 3.1 0 1 1 103 56.6a3.11 3.11 0 0 1 3.11 3.11Zm-9.85 8.86a4.14 4.14 0 1 1-4.14-4.16 4.14 4.14 0 0 1 4.14 4.16Z" opacity=".2" style="isolation:isolate"/><path fill="#388cc8" d="M342.42 308.93a18.19 18.19 0 1 0-21.88 13.56 18.24 18.24 0 0 0 21.88-13.56Z"/><path fill="#fff" d="M342.42 308.93a18.19 18.19 0 1 0-21.88 13.56 18.24 18.24 0 0 0 21.88-13.56Z" opacity=".3" style="isolation:isolate"/><path fill="#388cc8" d="M336.2 290.61a18.23 18.23 0 0 0-16.72 31.61 17.76 17.76 0 0 0 5.24.77 18.24 18.24 0 0 0 11.48-32.38Z" opacity=".4" style="isolation:isolate"/><path fill="#388cc8" d="M307.36 310.16c-19.42 9.16-4.94 16.23 22.42 6.36 25.33-9.13 35-20.64 12.34-17.08 1.17 4.85-30.55 17.24-34.76 10.71Z"/><path fill="#091639" d="M336 126c-25.44 17.23-58.36 40-67.45 94.67h-1.94c8.84-54.05 40.57-77.37 66-94.67Z" opacity=".2" style="isolation:isolate"/><path fill="#388cc8" d="M204.43 297.17c-16.05 0-32-7.26-39.71-19.15-4.78-7.34-10.33-22.71 6.21-43.23l1.47 1.2c-11.69 14.51-13.86 29.07-6.09 41 9.45 14.52 31.78 21.83 50.82 16.63 19.51-5.32 31.35-22.35 32.49-46.7 3.91-83.29 48-108.93 80.26-127.67 20-11.63 34.47-20 31.29-37.78a7.36 7.36 0 0 0-3-5.2c-4.11-2.72-12.15-.85-21.46 1.34-18.26 4.26-43.27 10.11-58.16-15.3l1.62-1c14.2 24.2 37.44 18.78 56.11 14.42 9.73-2.28 18.14-4.24 22.93-1.08a9.19 9.19 0 0 1 3.79 6.49c3.41 19-12.31 28.19-32.22 39.76-31.78 18.52-75.4 43.87-79.26 126.1-1.19 25.23-13.54 42.88-33.89 48.43a50.7 50.7 0 0 1-13.19 1.72Z"/><path fill="#fff" d="M204.43 297.17c-16.05 0-32-7.26-39.71-19.15-4.78-7.34-10.33-22.71 6.21-43.23l1.47 1.2c-11.69 14.51-13.86 29.07-6.09 41 9.45 14.52 31.78 21.83 50.82 16.63 19.51-5.32 31.35-22.35 32.49-46.7 3.91-83.29 48-108.93 80.26-127.67 20-11.63 34.47-20 31.29-37.78a7.36 7.36 0 0 0-3-5.2c-4.11-2.72-12.15-.85-21.46 1.34-18.26 4.26-43.27 10.11-58.16-15.3l1.62-1c14.2 24.2 37.44 18.78 56.11 14.42 9.73-2.28 18.14-4.24 22.93-1.08a9.19 9.19 0 0 1 3.79 6.49c3.41 19-12.31 28.19-32.22 39.76-31.78 18.52-75.4 43.87-79.26 126.1-1.19 25.23-13.54 42.88-33.89 48.43a50.7 50.7 0 0 1-13.19 1.72Z" opacity=".2" style="isolation:isolate"/><path fill="#388cc8" d="M259.05 39.84a43.52 43.52 0 0 1 12.84 2s10.36 17.8 11.63 21.88c-.43 4-7.2 10.61-7.2 10.61L259 39.84Z"/><path fill="#fff" d="M259.05 39.84a43.52 43.52 0 0 1 12.84 2s10.36 17.8 11.63 21.88c-.43 4-7.2 10.61-7.2 10.61L259 39.84Z" opacity=".3" style="isolation:isolate"/><path fill="#388cc8" d="M289.87 126.32a132.73 132.73 0 0 1-10.93-15.53q-1.2-2.07-2.26-4.2c-.41-.8-.8-1.62-1.18-2.44a9.41 9.41 0 0 1-1.13-2.54c-1.14-12 3-20.86-1-30.51l-15.57 6.11s1.32 17.18 4.35 27.47c1.87 6.38 6.12 11.9 10.21 17 1.28 1.6 2.52 3.24 3.79 4.84s2.57 2.9 3.78 4.41c1.84 2.29 2.45 4.48 1.05 7.17-.08.14-.15.29-.24.43-.4.7 1.47 1.5 2.63 0 1.93-2.45 1.63-2.3 3.27-4.38 1-1.28 2.15-2.64 3.14-3.83a3.19 3.19 0 0 0 .06-4Z"/><path fill="#fff" d="M289.87 126.32a132.73 132.73 0 0 1-10.93-15.53q-1.2-2.07-2.26-4.2c-.41-.8-.8-1.62-1.18-2.44a9.41 9.41 0 0 1-1.13-2.54c-1.14-12 3-20.86-1-30.51l-15.57 6.11s1.32 17.18 4.35 27.47c1.87 6.38 6.12 11.9 10.21 17 1.28 1.6 2.52 3.24 3.79 4.84s2.57 2.9 3.78 4.41c1.84 2.29 2.45 4.48 1.05 7.17-.08.14-.15.29-.24.43-.4.7 1.47 1.5 2.63 0 1.93-2.45 1.63-2.3 3.27-4.38 1-1.28 2.15-2.64 3.14-3.83a3.19 3.19 0 0 0 .06-4Z" opacity=".7" style="isolation:isolate"/><path fill="#388cc8" d="M286.06 121.38a52 52 0 0 1-8.19 7.13l1.21 1.39a42 42 0 0 0 8-7.12l-1.06-1.4Zm3.8 4.94-.11-.14a4.83 4.83 0 0 0-1.2 3 4.45 4.45 0 0 0 .37 2.22l.89-1.07a3.17 3.17 0 0 0 .05-4Z" opacity=".3" style="isolation:isolate"/><path fill="#388cc8" d="M255.35 51.22a33.48 33.48 0 0 1-6 6.82 23 23 0 0 1-4.18 2.83 19 19 0 0 1-2.44 1l-.63.21-.21.06-.45.13c-.29.06-.58.1-.83.13a7 7 0 0 1-2.37-.22 11.86 11.86 0 0 1-2.82-1.18 21 21 0 0 1-2-1.34 39.18 39.18 0 0 1-3.42-2.88 49.83 49.83 0 0 1-5.66-6.4A2.37 2.37 0 0 1 227.5 47h.08c2.23 1.42 4.48 2.92 6.68 4.26 1.1.65 2.19 1.32 3.26 1.83a15.79 15.79 0 0 0 1.5.68 3.14 3.14 0 0 0 1 .26c.05 0 0-.07-.36-.06a2.31 2.31 0 0 0-.32 0l-.2.05c-.07 0 0 0 0 0l.32-.17a10 10 0 0 0 1.22-.75 17.16 17.16 0 0 0 2.36-2 58.18 58.18 0 0 0 4.63-5.49 4.74 4.74 0 0 1 7.62 5.64Z"/><path fill="#fff" d="M255.35 51.22a33.48 33.48 0 0 1-6 6.82 23 23 0 0 1-4.18 2.83 19 19 0 0 1-2.44 1l-.63.21-.21.06-.45.13c-.29.06-.58.1-.83.13a7 7 0 0 1-2.37-.22 11.86 11.86 0 0 1-2.82-1.18 21 21 0 0 1-2-1.34 39.18 39.18 0 0 1-3.42-2.88 49.83 49.83 0 0 1-5.66-6.4A2.37 2.37 0 0 1 227.5 47h.08c2.23 1.42 4.48 2.92 6.68 4.26 1.1.65 2.19 1.32 3.26 1.83a15.79 15.79 0 0 0 1.5.68 3.14 3.14 0 0 0 1 .26c.05 0 0-.07-.36-.06a2.31 2.31 0 0 0-.32 0l-.2.05c-.07 0 0 0 0 0l.32-.17a10 10 0 0 0 1.22-.75 17.16 17.16 0 0 0 2.36-2 58.18 58.18 0 0 0 4.63-5.49 4.74 4.74 0 0 1 7.62 5.64Z" opacity=".7" style="isolation:isolate"/><path fill="#388cc8" d="m220.77 45 1.11 1.86s.85 2.49 2.54 2.94l4.58-1.46-.23-.39c-.59-.9-.52-2.63-.32-4.07s-.54-1.49-1.09-1.14a3.63 3.63 0 0 0-.8 1.57 7.83 7.83 0 0 0-.74-.88l-1.4-1.4a1.6 1.6 0 0 0-2.21-.07l-1.14 1a1.62 1.62 0 0 0-.31 2Z"/><path fill="#fff" d="m220.77 45 1.11 1.86s.85 2.49 2.54 2.94l4.58-1.46-.23-.39c-.59-.9-.52-2.63-.32-4.07s-.54-1.49-1.09-1.14a3.63 3.63 0 0 0-.8 1.57 7.83 7.83 0 0 0-.74-.88l-1.4-1.4a1.6 1.6 0 0 0-2.21-.07l-1.14 1a1.62 1.62 0 0 0-.31 2Z" opacity=".7" style="isolation:isolate"/><path fill="#388cc8" d="M263.7 38.2a55.92 55.92 0 0 0-14.52 6.13 4.09 4.09 0 0 0-1.83 4.29c1.82 9 6 20.94 10.46 28.58l20.91-8.68c.14-3.7-4.94-15.67-10.1-27.24-.93-2.08-2.71-3.62-4.92-3.09Z"/><path fill="#fff" d="M263.7 38.2a55.92 55.92 0 0 0-14.52 6.13 4.09 4.09 0 0 0-1.83 4.29c1.82 9 6 20.94 10.46 28.58l20.91-8.68c.14-3.7-4.94-15.67-10.1-27.24-.93-2.08-2.71-3.62-4.92-3.09Z" opacity=".8" style="isolation:isolate"/><path fill="#388cc8" d="m271.85 48.62-4.15-1.39c.93 2.43 4.28 5.52 6.65 7.33-.78-1.91-1.62-3.89-2.5-5.94Z" opacity=".3" style="isolation:isolate"/><path fill="#388cc8" d="M262.32 28.81c-1.72-3.3-5.46-5-9.95-4.59-3.78.31-7.13 4.19-6.74 6.27s3.58 3 4.16 3.71l-2.62 1.91a2.85 2.85 0 0 0-.57 4.07c1.11 1.4 2.55 2.87 3.4 3.91 7.25-.19 12.61-3 14.54-5.64-.69-3.39-.51-6.36-2.23-9.65Z"/><path fill="#fff" d="M262.32 28.81c-1.72-3.3-5.46-5-9.95-4.59-3.78.31-7.13 4.19-6.74 6.27s3.58 3 4.16 3.71l-2.62 1.91a2.85 2.85 0 0 0-.57 4.07c1.11 1.4 2.55 2.87 3.4 3.91 7.25-.19 12.61-3 14.54-5.64-.69-3.39-.51-6.36-2.23-9.65Z" opacity=".8" style="isolation:isolate"/><path fill="#091639" d="M258.77 30.85a7.16 7.16 0 1 1-9.28-4.08 7.18 7.18 0 0 1 9.28 4.08Z"/><path fill="#388cc8" d="M320.17 116.32c-.1-3.12-.23-2.8-.33-5.46 0-1.61-.06-3.4-.07-5a3.2 3.2 0 0 0-2.56-3.11c-1.26-.26-2.5-.49-3.76-.77a61.3 61.3 0 0 1-12.41-3.94 128.8 128.8 0 0 1-9.29-4.41c-6.22-10.34-6.35-17.14-13-25.14L264.37 75s10.54 18.74 17.71 26.69c4.13 4.57 10.61 6.64 16.39 8.13 4.17 1.08 8.4 1.9 12.62 2.68 1.65.3 3.44.42 4.86 1.4a5.51 5.51 0 0 1 2 3.28c.07.26.12.53.17.79.15.8 2.08.2 2-1.68Z"/><path fill="#fff" d="M320.17 116.32c-.1-3.12-.23-2.8-.33-5.46 0-1.61-.06-3.4-.07-5a3.2 3.2 0 0 0-2.56-3.11c-1.26-.26-2.5-.49-3.76-.77a61.3 61.3 0 0 1-12.41-3.94 128.8 128.8 0 0 1-9.29-4.41c-6.22-10.34-6.35-17.14-13-25.14L264.37 75s10.54 18.74 17.71 26.69c4.13 4.57 10.61 6.64 16.39 8.13 4.17 1.08 8.4 1.9 12.62 2.68 1.65.3 3.44.42 4.86 1.4a5.51 5.51 0 0 1 2 3.28c.07.26.12.53.17.79.15.8 2.08.2 2-1.68Z" opacity=".8" style="isolation:isolate"/><path fill="#388cc8" d="m312.91 101.92-1.71-.39c0 3.27-1.49 8.93-2.06 10.64l1.8.34a35.82 35.82 0 0 0 2-10.6Zm6.87 3.99a3.18 3.18 0 0 0-2.55-3.11l-.9-.18a4.38 4.38 0 0 0 1.55 2.75 4.73 4.73 0 0 0 1.92 1.08v-.54Z" opacity=".3" style="isolation:isolate"/><path fill="#fff" d="M257.43 30.91c.38 1.44-1.22 2.95-2.51 1.71a28.37 28.37 0 0 0-3.9-3.5c-1.31-.83.44-2.27 2.51-1.71a5.66 5.66 0 0 1 3.9 3.5Z"/><path fill="#388cc8" d="M257.54 76.74c-.66.25.55 1.39.55 1.39s13.21-4.55 21.27-9.22a1.77 1.77 0 0 0-.64-1.5 206.51 206.51 0 0 1-21.19 9.33Z"/><path fill="#fff" d="M257.54 76.74c-.66.25.55 1.39.55 1.39s13.21-4.55 21.27-9.22a1.77 1.77 0 0 0-.64-1.5 206.51 206.51 0 0 1-21.19 9.33Z" opacity=".5" style="isolation:isolate"/><path fill="#388cc8" d="M267.28 37.57a91 91 0 0 1 11.15 6.69A54.8 54.8 0 0 1 282 47l.44.37.56.5a13.19 13.19 0 0 1 1 1c.3.33.55.65.8 1s.5.64.73 1a43.77 43.77 0 0 1 2.47 3.72 56.73 56.73 0 0 1 3.75 7.92 2.38 2.38 0 0 1-4 2.47h-.05c-1.9-2-3.72-4.14-5.56-6.12a27.08 27.08 0 0 0-5.24-4.88c-2.15-1.35-4.54-2.67-6.91-4l-7.15-4a4.74 4.74 0 0 1 4.42-8.39Z"/><path fill="#fff" d="M267.28 37.57a91 91 0 0 1 11.15 6.69A54.8 54.8 0 0 1 282 47l.44.37.56.5a13.19 13.19 0 0 1 1 1c.3.33.55.65.8 1s.5.64.73 1a43.77 43.77 0 0 1 2.47 3.72 56.73 56.73 0 0 1 3.75 7.92 2.38 2.38 0 0 1-4 2.47h-.05c-1.9-2-3.72-4.14-5.56-6.12a27.08 27.08 0 0 0-5.24-4.88c-2.15-1.35-4.54-2.67-6.91-4l-7.15-4a4.74 4.74 0 0 1 4.42-8.39Z" opacity=".8" style="isolation:isolate"/><path fill="#388cc8" d="m294 67.14-.8-2s-.45-2.58-2.05-3.3l-4.77.75.17.42c.44 1 .1 2.68-.32 4.07s.3 1.55.89 1.29c.35-.15.68-.77 1-1.43a7.67 7.67 0 0 0 .6 1l1.28 1.58a1.6 1.6 0 0 0 2.17.4l1.28-.82a1.64 1.64 0 0 0 .63-2Z"/><path fill="#fff" d="m294 67.14-.8-2s-.45-2.58-2.05-3.3l-4.77.75.17.42c.44 1 .1 2.68-.32 4.07s.3 1.55.89 1.29c.35-.15.68-.77 1-1.43a7.67 7.67 0 0 0 .6 1l1.28 1.58a1.6 1.6 0 0 0 2.17.4l1.28-.82a1.64 1.64 0 0 0 .63-2Z" opacity=".8" style="isolation:isolate"/><path fill="#388cc8" d="m263.28 48.47-1.15.09L255 65.71a3.65 3.65 0 0 0 1.16-.09s9.23-3.46 12-4.72c-1.88-3.9-5-12.43-5-12.43Z" opacity=".3" style="isolation:isolate"/><path fill="#fff" d="M250.35 53A41.63 41.63 0 0 0 255 65.72c3.47-1.19 9.23-3.45 12-4.71a130 130 0 0 1-4.95-12.44A31.59 31.59 0 0 0 250.34 53Z"/><path fill="#388cc8" d="M257.39 56.68a2.44 2.44 0 1 1-1.63-3 2.44 2.44 0 0 1 1.63 3Z" opacity=".3" style="isolation:isolate"/><path fill="#388cc8" d="M259.2 53.42a.8.8 0 0 1-1.54-.46.8.8 0 1 1 1.54.46Zm2.1-.83a.78.78 0 0 1-1 .54.8.8 0 1 1 .46-1.53.79.79 0 0 1 .54.99Z" opacity=".6" style="isolation:isolate"/><path fill="#388cc8" d="m264.28 60-8.74 3.48-.54-1.76 8.74-3.46Z" opacity=".5" style="isolation:isolate"/><path fill="#091639" d="M216 191.8a89.44 89.44 0 0 1-1.59 16.46q-1.66 7.32-5.2 10.7a11.59 11.59 0 0 1-8.33 3.39q-7.29 0-11.13-8a21.91 21.91 0 0 1-1.15-3 137.69 137.69 0 0 0-15.06 15.2l-5 5.94a36.62 36.62 0 0 0 9.24 6.82Q186.62 244 201 244c1.69 0 3.31 0 4.89-.14a136 136 0 0 0 14.29-27.53l14-36.72L216 191.8Z" opacity=".2" style="isolation:isolate"/><path fill="#091639" d="m89.4 241.88 16.6 16.6 46.35-43.8c-16-6.08-47.09 11.32-62.95 27.2Zm57.73 57.88-16.55-16.59 43.66-46.49c6.07 16-11.25 47.18-27.11 63.08Z"/><path fill="#388cc8" d="m210.47 195.15 18.05-34.91-34.81 18.11A135.9 135.9 0 0 0 163 200.17l-59.35 56 29.16 29.24 55.87-59.52a137.13 137.13 0 0 0 21.79-30.74Z"/><path fill="#fff" d="m210.47 195.15 18.05-34.91-34.81 18.11A135.9 135.9 0 0 0 163 200.17l-59.35 56 29.16 29.24 55.87-59.52a137.13 137.13 0 0 0 21.79-30.74Z" opacity=".6" style="isolation:isolate"/><path fill="#fff" d="M173.39 227.76a12.24 12.24 0 1 0-12.2-12.23 12.22 12.22 0 0 0 12.2 12.23Z"/><path fill="#388cc8" d="M173.39 223.39a7.87 7.87 0 1 0-7.84-7.86 7.85 7.85 0 0 0 7.84 7.86Z"/><path fill="#388cc8" d="m142.7 274.93-28.54-28.62 23.37-22.07 27.17 27.25Z" opacity=".3" style="isolation:isolate"/><path fill="#388cc8" d="M95.87 268.1c-21.38 1.75-28.46 15.47-30.87 33.71-1.23 9.31-1.78 18.72-9.57 24.17a2.62 2.62 0 0 0 1.54 4.8c28.69-.9 42.08-15 43.76-20.89a40.33 40.33 0 0 1-2.36 9 2.61 2.61 0 0 0 3.82 3.21c8-5.06 18.15-14.38 18.83-29.48-6-8.39-25.14-24.51-25.14-24.51Z"/><path fill="#fff" d="M95.87 268.1c-21.38 1.75-28.46 15.47-30.87 33.71-1.23 9.31-1.78 18.72-9.57 24.17a2.62 2.62 0 0 0 1.54 4.8c28.69-.9 42.08-15 43.76-20.89a40.33 40.33 0 0 1-2.36 9 2.61 2.61 0 0 0 3.82 3.21c8-5.06 18.15-14.38 18.83-29.48-6-8.39-25.14-24.51-25.14-24.51Z" opacity=".2" style="isolation:isolate"/><path fill="#388cc8" d="m124.29 299.11-34.23-34.34 18.23-3.95 19.94 20Z"/></svg>