<svg xmlns="http://www.w3.org/2000/svg" width="24" height="24" fill="#000000"><path d="M3.6 8.85a.75.75 0 0 0 0 1.5v-1.5Zm16.8 1.5a.75.75 0 0 0 0-1.5v1.5Zm-16.7 3.9a.75.75 0 0 0 0 1.5v-1.5Zm16.8 1.5a.75.75 0 0 0 0-1.5v1.5Zm.35-3.75A8.85 8.85 0 0 1 12 20.85v1.5c5.72 0 10.35-4.63 10.35-10.35h-1.5ZM12 20.85A8.85 8.85 0 0 1 3.15 12h-1.5c0 5.72 4.63 10.35 10.35 10.35v-1.5ZM3.15 12A8.85 8.85 0 0 1 12 3.15v-1.5A10.35 10.35 0 0 0 1.65 12h1.5ZM12 3.15A8.85 8.85 0 0 1 20.85 12h1.5c0-5.72-4.63-10.35-10.35-10.35v1.5Zm0 17.7c-.33 0-.7-.15-1.11-.54-.41-.4-.82-1.01-1.17-1.82A16.73 16.73 0 0 1 8.55 12h-1.5c0 2.73.48 5.24 1.3 7.09.4.92.9 1.72 1.5 2.3.6.57 1.32.96 2.15.96v-1.5ZM8.55 12c0-2.57.46-4.87 1.17-6.49.35-.81.76-1.42 1.17-1.82.4-.39.78-.54 1.11-.54v-1.5a3.1 3.1 0 0 0-2.16.97 7.2 7.2 0 0 0-1.5 2.3A18.2 18.2 0 0 0 7.05 12h1.5ZM12 22.35a3.1 3.1 0 0 0 2.16-.97 7.2 7.2 0 0 0 1.5-2.3c.8-1.84 1.29-4.35 1.29-7.08h-1.5c0 2.57-.46 4.87-1.17 6.49a5.73 5.73 0 0 1-1.17 1.82c-.4.39-.78.54-1.11.54v1.5ZM16.95 12c0-2.73-.48-5.24-1.3-7.09a7.2 7.2 0 0 0-1.5-2.3A3.1 3.1 0 0 0 12 1.66v1.5c.33 0 .7.15 1.11.54.41.4.82 1.01 1.17 1.82A16.73 16.73 0 0 1 15.45 12h1.5ZM3.6 10.35h16.8v-1.5H3.6v1.5Zm.1 5.4h16.8v-1.5H3.7v1.5Z"/></svg>
