<svg xmlns="http://www.w3.org/2000/svg" viewBox="0 0 24 24" fill="#000000"><path d="M3.07 19.27a.75.75 0 0 0 1.06 1.06l-1.06-1.06ZM8.4 15l.53-.53a.75.75 0 0 0-1.06 0l.53.53Zm2.4 2.4-.53.53c.3.3.77.3 1.06 0l-.53-.53Zm5.4-5.4.53-.53a.75.75 0 0 0-1.06 0l.53.53Zm4.27 5.33a.75.75 0 0 0 1.06-1.06l-1.06 1.06Zm-16.34 3 4.8-4.8-1.06-1.06-4.8 4.8 1.06 1.06Zm3.74-4.8 2.4 2.4 1.06-1.06-2.4-2.4-1.06 1.06Zm3.46 2.4 5.4-5.4-1.06-1.06-5.4 5.4 1.06 1.06Zm4.34-5.4 4.8 4.8 1.06-1.06-4.8-4.8-1.06 1.06ZM6 3.15h12v-1.5H6v1.5ZM20.85 6v12h1.5V6h-1.5ZM18 20.85H6v1.5h12v-1.5ZM3.15 18V6h-1.5v12h1.5ZM6 20.85A2.85 2.85 0 0 1 3.15 18h-1.5c0 2.4 1.95 4.35 4.35 4.35v-1.5ZM20.85 18A2.85 2.85 0 0 1 18 20.85v1.5c2.4 0 4.35-1.95 4.35-4.35h-1.5ZM18 3.15A2.85 2.85 0 0 1 20.85 6h1.5c0-2.4-1.95-4.35-4.35-4.35v1.5ZM6 1.65A4.35 4.35 0 0 0 1.65 6h1.5A2.85 2.85 0 0 1 6 3.15v-1.5ZM8.85 7.8c0 .58-.47 1.05-1.05 1.05v1.5c1.4 0 2.55-1.14 2.55-2.55h-1.5ZM7.8 8.85c-.58 0-1.05-.47-1.05-1.05h-1.5c0 1.4 1.14 2.55 2.55 2.55v-1.5ZM6.75 7.8c0-.58.47-1.05 1.05-1.05v-1.5A2.55 2.55 0 0 0 5.25 7.8h1.5ZM7.8 6.75c.58 0 1.05.47 1.05 1.05h1.5c0-1.4-1.14-2.55-2.55-2.55v1.5Z"/></svg>
